<svg id="Layer_1" data-name="Layer 1" xmlns="http://www.w3.org/2000/svg" viewBox="0 0 772 667.4"><defs><style>.cls-1{fill:#e86369;}.cls-2{fill:#85c2ac;}</style></defs><title>book</title><path class="cls-1" d="M133,331.66c6-7.65,10.4-17,23.13-19.4.29,6.07.81,11.84.81,17.62q.08,177,0,354c0,30.21,10.27,40.12,40.15,38.75,75-3.42,149.64,1.8,217.66,35,39.1,19.09,77.69,11.06,116.72,13.42a18.71,18.71,0,0,0,11-3.49c28.62-20.39,61-27.74,95.34-33.55a782.79,782.79,0,0,1,136.8-11c15.16.11,17.27,4.11,10.48,18-7.08,14.52-19.5,18.28-34.56,17.94-59.63-1.37-119,.58-176.79,17.51-20.7,6.07-40.93,13.58-56.62,29.51H420.28c-77.11-41.16-159.95-52.87-246-47.23-19.37,1.26-33.68-4.19-41.3-22.92Z" transform="translate(-133 -138.6)"/><path class="cls-1" d="M781.15,491.67c0,65.73-.26,128,.24,190.24.09,11.15-5.49,11-13.41,10.8-45.68-.9-91.13,1.56-136.21,9.53-34.65,6.12-68.46,14.62-98,34.82-6,4.11-12.44,4.27-19.14,4.23-5,0-10-.31-15,.05-28.14,2.06-53.91-3.65-80.29-15.2-65.77-28.79-135.87-36.09-207.17-33.87-25.22.78-25.22.6-25.22-25.31,0-114.08.29-228.17-.38-342.26-.08-14.06,4.6-18.74,17.46-18.41,5.55.15,11.11-.56,16.67-.76,23.39-.86,23.58-.82,25.79-23.6.56-5.75,1.7-6.79,8.23-7.77,40.93-6.17,80.53,3.33,120.35,9a509.2,509.2,0,0,1,99.93,25.19c7,2.52,12.55,1.5,18.89-1.35C522,294.37,552,288.59,582.5,285.73c9.08-.85,18.5,1.51,27.71,2.77,6.09.83,5.66,5.48,2.74,8.45-10.43,10.59-16.36,25.9-35.74,26.46-20.51.59-40.11,7.93-59.38,15.38-10,3.88-15.19,10.2-16.21,20.57-1.5,15.47-3.25,30.92-4.64,46.41-.5,5.63-.26,10.79-7.3,13.26-6.51,2.29-10.23,3.25-10.06-5.85.36-18.91-.27-37.85.27-56.76.22-7.9-2.18-12-9.91-14.48-58.45-18.51-117.63-32.68-179.42-33.6-11.73-.18-15,3.46-15,15.06q.63,144.41,0,288.83c0,9.83,2.59,13.07,12.75,14.11,62.51,6.38,124.38,16.38,183.93,37.42a22,22,0,0,0,16-.23c61.68-22.78,126-30.91,191.2-33.56,13.35-.54,16.94-4.8,16.3-17.48-1-19.42-.1-38.94-.33-58.42-.08-6.52.49-11.71,7.72-14.64C730.66,528.32,755.4,512.59,781.15,491.67ZM337,669.29c-27-9.91-55.25-11.35-83.14-12.16-16.13-.47-18.47-6.21-18.33-20.29,1-97.8,1.27-195.6,1.6-293.4,0-4.53,2.86-11-3.26-13.07-3.7-1.24-8.95.25-12.88,2-6.86,3-3.64,9.75-3.66,14.75q-.3,134.21-.15,268.41c0,14.45,0,28.89,0,43.34,0,5.88,0,10.71,8.55,10.62C262.83,669.08,299.93,669.29,337,669.29Z" transform="translate(-133 -138.6)"/><path class="cls-2" d="M764.93,302.15l3.18-3.47" transform="translate(-133 -138.6)"/><path class="cls-2" d="M767.46,298.05l-4.28,2.38-6.28,3.65c-45.73,26.45-84,61.71-119.2,100.66-21.19,23.45-39.74,49-58.17,75.27-16.16-41,9.68-132.35,56.58-184.37,2.82,11.74,2.6,23.44,10.17,35.3,2.28-8.13,3.67-14.67,5.92-20.9q16.84-46.59,60.14-70.88C742,222.58,773.46,210,804.31,196c32.76-14.9,66.1-29.18,91-57.35,21.48,53,7.57,109.33-45.35,185.25,15.86,3.21,30.62-1.28,48.17-5.12-25.17,78.91-79,122.07-156.49,138.7,3.08,7.15,9.26,7.52,13.87,10,4.35,2.32,9.2,3.69,15.93,6.29-21.55,13.24-42.71,23.33-66.1,24.95-41.74,2.9-74.6,23.19-105.19,49.09-9.74,8.24-19.29,16.73-28.93,25.11-.6-.63-1.2-1.24-1.82-1.85,21.46-48.92,50.88-93.17,81.08-136.88" transform="translate(-133 -138.6)"/><path class="cls-2" d="M571.23,572.85c-.77.61-2,1.91-2.23,1.74-2-1.31-.76-2.48.42-3.58C570,571.61,570.63,572.22,571.23,572.85Z" transform="translate(-133 -138.6)"/></svg>