<?xml version="1.0" encoding="utf-8"?>
<!-- Generator: Adobe Illustrator 22.0.0, SVG Export Plug-In . SVG Version: 6.00 Build 0)  -->
<svg version="1.1" id="Layer_1" xmlns="http://www.w3.org/2000/svg" xmlns:xlink="http://www.w3.org/1999/xlink" x="0px" y="0px"
	 viewBox="0 0 512 512" style="enable-background:new 0 0 512 512;" xml:space="preserve">
<style type="text/css">
	.st0{fill:#0EAA00;}
	.st1{fill:#0C7700;}
	.st2{fill:#00E9E6;}
	.st3{fill:none;stroke:#000000;stroke-width:3;stroke-miterlimit:10;}
	.st4{fill:none;}
	.st5{fill:#FFFFFF;}
	.st6{fill:#009DEA;}
	.st7{fill:#FF836C;}
	.st8{fill:#E6E6E6;}
</style>
<g>
	<path class="st0" d="M456,427H99c-6.6,0-12-5.4-12-12V58c0-6.6,5.4-12,12-12h357c6.6,0,12,5.4,12,12v357
		C468,421.6,462.6,427,456,427z"/>
	<path class="st1" d="M87.3,189.8c0,0,44,106.7,81.3,103.6s78-60,112.7-58.9s129.3,71.1,158.7,82.3c29.3,11.2,29.3,11.2,29.3,11.2
		L468,65.3c0,0,2-14.7-12-18.3c-14-3.6-357,0-357,0s-11,3.6-12,18.3S87.3,189.8,87.3,189.8z"/>
	<path class="st2" d="M87.3,171.6c0,0,44,93.2,81.3,90.6c37.3-2.7,78-52.4,112.7-51.5s129.3,62.1,158.7,71.9
		c29.3,9.8,29.3,9.8,29.3,9.8L468,62.8c0,0,2-12.9-12-16c-14-3.1-357,0-357,0s-11,3.1-12,16S87.3,171.6,87.3,171.6z"/>
	<path class="st3" d="M456,427.5H99c-6.6,0-12-5.4-12-12v-357c0-6.6,5.4-12,12-12h357c6.6,0,12,5.4,12,12v357
		C468,422.1,462.6,427.5,456,427.5z"/>
	<path class="st4" d="M364.8,194.1c6,0,10.9,4.9,10.9,10.9c0,6-4.9,10.9-10.9,10.9c-34.8,0-64.6,26-69.3,60.5
		c-0.7,5.5-5.4,9.4-10.8,9.4c-0.5,0-1,0-1.5-0.1c-6-0.8-10.2-6.3-9.3-12.3C280,228.2,319.1,194.1,364.8,194.1z"/>
	<g>
		<path class="st5" d="M227.5,117.7c10.8,0.2,19.5,9,19.5,19.8c0,10.9-8.9,19.8-19.8,19.8h-52c-12.3,0-22.3-10-22.3-22.3
			c0-12.3,10-22.3,22.3-22.3c0.1,0,0.2,0,0.3,0c1.2-5.5,4.1-10.6,8.4-14.3c4.8-4.2,11-6.6,17.4-6.6
			C215.6,91.8,227.3,103.4,227.5,117.7z M243,137.5c0-8.7-7.1-15.7-15.7-15.7c-0.5,0-1.1,0-1.6,0.1c-0.6,0.1-1.2-0.1-1.6-0.6
			c-0.4-0.4-0.6-1-0.6-1.6l0-0.2c0-0.5,0.1-0.9,0.1-1.4c0-12.3-10-22.3-22.3-22.3c-5.4,0-10.6,2-14.7,5.5c-4,3.5-6.6,8.4-7.4,13.7
			c-0.1,1.1-1.1,1.8-2.2,1.7c-0.6-0.1-1.2-0.1-1.7-0.1c-10.1,0-18.3,8.2-18.3,18.3c0,10.1,8.2,18.3,18.3,18.3h52
			C235.9,153.2,243,146.2,243,137.5z"/>
		<path class="st5" d="M227.2,121.7c8.7,0,15.7,7.1,15.7,15.7c0,8.7-7.1,15.7-15.7,15.7h-52c-10.1,0-18.3-8.2-18.3-18.3
			c0-10.1,8.2-18.3,18.3-18.3c0.5,0,1.1,0,1.7,0.1c1.1,0.1,2-0.7,2.2-1.7c0.7-5.3,3.3-10.2,7.4-13.7c4.1-3.6,9.3-5.5,14.7-5.5
			c12.3,0,22.3,10,22.3,22.3c0,0.4,0,0.9-0.1,1.4l0,0.2c0,0.6,0.2,1.2,0.6,1.6c0.4,0.4,1,0.6,1.6,0.6
			C226.2,121.7,226.7,121.7,227.2,121.7z M203.2,103.2c0-1.1-0.9-2-2-2c-8.4,0-15.6,6.3-16.7,14.6c-0.1,1.1,0.6,2.1,1.7,2.3
			c0.1,0,0.2,0,0.3,0c1,0,1.8-0.7,2-1.7c0.9-6.3,6.3-11.1,12.7-11.1C202.3,105.2,203.2,104.3,203.2,103.2z"/>
		<path class="st5" d="M201.2,101.2c1.1,0,2,0.9,2,2c0,1.1-0.9,2-2,2c-6.4,0-11.9,4.8-12.7,11.1c-0.1,1-1,1.7-2,1.7
			c-0.1,0-0.2,0-0.3,0c-1.1-0.1-1.9-1.2-1.7-2.3C185.7,107.5,192.9,101.2,201.2,101.2z"/>
	</g>
	<g>
		<path class="st5" d="M434.2,205.7c10.8,0.2,19.5,9,19.5,19.8c0,10.9-8.9,19.8-19.8,19.8h-52c-12.3,0-22.3-10-22.3-22.3
			c0-12.3,10-22.3,22.3-22.3c0.1,0,0.2,0,0.3,0c1.2-5.5,4.1-10.6,8.4-14.3c4.8-4.2,11-6.6,17.4-6.6
			C422.3,179.8,434,191.4,434.2,205.7z M449.7,225.5c0-8.7-7.1-15.7-15.7-15.7c-0.5,0-1.1,0-1.6,0.1c-0.6,0.1-1.2-0.1-1.6-0.6
			c-0.4-0.4-0.6-1-0.6-1.6l0-0.2c0-0.5,0.1-0.9,0.1-1.4c0-12.3-10-22.3-22.3-22.3c-5.4,0-10.6,2-14.7,5.5c-4,3.5-6.6,8.4-7.4,13.7
			c-0.1,1.1-1.1,1.8-2.2,1.7c-0.6-0.1-1.2-0.1-1.7-0.1c-10.1,0-18.3,8.2-18.3,18.3c0,10.1,8.2,18.3,18.3,18.3h52
			C442.6,241.2,449.7,234.2,449.7,225.5z"/>
		<path class="st5" d="M433.9,209.7c8.7,0,15.7,7.1,15.7,15.7c0,8.7-7.1,15.7-15.7,15.7h-52c-10.1,0-18.3-8.2-18.3-18.3
			c0-10.1,8.2-18.3,18.3-18.3c0.5,0,1.1,0,1.7,0.1c1.1,0.1,2-0.7,2.2-1.7c0.7-5.3,3.3-10.2,7.4-13.7c4.1-3.6,9.3-5.5,14.7-5.5
			c12.3,0,22.3,10,22.3,22.3c0,0.4,0,0.9-0.1,1.4l0,0.2c0,0.6,0.2,1.2,0.6,1.6c0.4,0.4,1,0.6,1.6,0.6
			C432.8,209.7,433.4,209.7,433.9,209.7z M409.9,191.2c0-1.1-0.9-2-2-2c-8.4,0-15.6,6.3-16.7,14.6c-0.1,1.1,0.6,2.1,1.7,2.3
			c0.1,0,0.2,0,0.3,0c1,0,1.8-0.7,2-1.7c0.9-6.3,6.3-11.1,12.7-11.1C409,193.2,409.9,192.3,409.9,191.2z"/>
		<path class="st5" d="M407.9,189.2c1.1,0,2,0.9,2,2c0,1.1-0.9,2-2,2c-6.4,0-11.9,4.8-12.7,11.1c-0.1,1-1,1.7-2,1.7
			c-0.1,0-0.2,0-0.3,0c-1.1-0.1-1.9-1.2-1.7-2.3C392.3,195.5,399.5,189.2,407.9,189.2z"/>
	</g>
	<g>
		<g>
			<path class="st6" d="M239.4,344.2L185.2,290l-1.1,1.1c-2.7,2.7-7.1,2.7-9.7,0l-6.6-6.6l-8.1,8.1c-21.2,21.2-21.2,55.9,0,77.1
				c21.2,21.2,55.9,21.2,77.1,0l8-8l-6.6-6.6c-2.7-2.7-2.7-7.1,0-9.7L239.4,344.2z"/>
			<path class="st7" d="M185.2,290l16.2-16.2l1.3-1.3c2.7-2.7,2.7-7.1,0-9.7l-10.6-10.6c-2.7-2.7-7.1-2.7-9.7,0l-18.7,18.7
				c-2.7,2.7-2.7,7.1,0,9.7l4.1,4.1l6.6,6.6c2.7,2.7,7.1,2.7,9.7,0L185.2,290z"/>
			<path class="st8" d="M201.5,273.8L185.2,290l54.2,54.2l16.2-16.2l-17.6-17.6c4.5-4.5,5-13.6-0.3-18.8c-5.3-5.3-14.4-4.7-18.8-0.3
				L201.5,273.8z"/>
			<path class="st7" d="M255.7,328l-16.2,16.2l-1.2,1.2c-2.7,2.7-2.7,7.1,0,9.7l10.6,10.6c2.7,2.7,7.1,2.7,9.7,0l18.7-18.7
				c2.7-2.7,2.7-7.1,0-9.7l-10.6-10.6c-2.7-2.7-7.1-2.7-9.7,0L255.7,328z"/>
			<path class="st6" d="M238.1,310.4l17.6,17.6l1.2-1.2c2.7-2.7,7.1-2.7,9.7,0l6.6,6.6l100.7-100.7l-6.6-6.6c-2.7-2.7-2.7-7.1,0-9.7
				l1.2-1.2L351,197.6c-4.5,4.5-13.6,5-18.8-0.3c-5.3-5.3-4.7-14.4-0.3-18.8l-17.6-17.6l-1.3,1.3c-2.7,2.7-7.1,2.7-9.7,0l-6.6-6.6
				L196.2,256.1l6.6,6.6c2.7,2.7,2.7,7.1,0,9.7l-1.3,1.3l17.6,17.6c4.5-4.5,13.6-5,18.8,0.3C243.1,296.9,242.6,306,238.1,310.4z"/>
			<path class="st7" d="M303.2,162.3c2.7,2.7,7.1,2.7,9.7,0l17.6-17.6l1.1-1.1c2.7-2.7,2.7-7.1,0-9.7l-6.6-6.6l-4.1-4.1
				c-2.7-2.7-7.1-2.7-9.7,0l-18.7,18.7c-2.7,2.7-2.7,7.1,0,9.7L303.2,162.3z"/>
			<path class="st8" d="M314.3,160.9l17.6,17.6c-4.5,4.5-5,13.6,0.3,18.8c5.3,5.3,14.4,4.7,18.8,0.3l17.6,17.6l16.2-16.2l-54.2-54.2
				L314.3,160.9z"/>
			<path class="st7" d="M384.7,198.9l-16.2,16.2l-1.2,1.2c-2.7,2.7-2.7,7.1,0,9.7l6.6,6.6l4.1,4.1c2.7,2.7,7.1,2.7,9.7,0l18.7-18.7
				c2.7-2.7,2.7-7.1,0-9.7l-4.1-4.1l-6.6-6.6c-2.7-2.7-7.1-2.7-9.7,0L384.7,198.9z"/>
			<path class="st6" d="M330.5,144.7l54.2,54.2l1.2-1.2c2.7-2.7,7.1-2.7,9.7,0l6.6,6.6l8-8c21.2-21.2,21.2-55.9,0-77.1
				c-21.2-21.2-55.9-21.2-77.1,0l-8.1,8.1l6.6,6.6c2.7,2.7,2.7,7.1,0,9.7L330.5,144.7z"/>
			<path class="st8" d="M308.6,220.9l-4.3,17.6l14.3,11.1l-16.5,7.7l0.2,18.1l-16.2-8.1l-14,11.5l-3.8-17.7l-17.7-3.8l11.5-14
				L254,227l18.1,0.2l7.7-16.5l11.1,14.3L308.6,220.9z"/>
		</g>
		<path d="M414.4,115.1c-11.3-11.3-26.5-17.6-42.6-17.6s-31.3,6.2-42.6,17.6l-4.1,4.1h0c-4.9-4.9-12.9-4.9-17.9,0l-18.7,18.7
			c-4.9,4.9-4.9,12.9,0,17.9l-4.9,4.9c-2.2,2.2-2.2,5.9,0,8.1c1.1,1.1,2.6,1.7,4.1,1.7s2.9-0.6,4.1-1.7l4.9-4.9l2.5,2.5
			c2.5,2.5,5.7,3.7,8.9,3.7c2,0,4-0.5,5.8-1.4l10.6,10.6c-1.2,2.5-1.8,5.4-1.9,8.3c0,5.3,1.9,10.3,5.5,13.8
			c3.6,3.6,8.5,5.5,13.8,5.5c3,0,5.8-0.7,8.3-1.9l10.6,10.6c-2.3,4.7-1.6,10.6,2.4,14.6l2.5,2.5l-92.5,92.5l-2.5-2.5
			c-3.9-3.9-9.8-4.7-14.6-2.4l-10.6-10.6c1.2-2.5,1.8-5.4,1.9-8.3c0-5.3-1.9-10.2-5.5-13.8c-3.6-3.6-8.5-5.5-13.8-5.5
			c-3,0-5.8,0.7-8.3,1.9l-10.6-10.6c2.4-4.7,1.7-10.7-2.3-14.7l-2.5-2.5l54.9-54.9c2.2-2.2,2.2-5.9,0-8.1c-2.2-2.2-5.9-2.2-8.1,0
			L196.2,248c-4.9-4.9-12.9-4.9-17.9,0l-18.7,18.7c-4.9,4.9-4.9,12.9,0,17.9l-4.1,4.1C144.2,300,138,315.1,138,331.2
			s6.2,31.3,17.6,42.6s26.5,17.6,42.6,17.6s31.3-6.2,42.6-17.6l4-4c2.4,2.4,5.6,3.7,8.9,3.7c3.4,0,6.6-1.3,8.9-3.7l18.7-18.7
			c4.9-4.9,4.9-12.9,0-17.9l92.5-92.5c2.4,2.4,5.6,3.7,8.9,3.7c3.4,0,6.6-1.3,8.9-3.7l18.7-18.7c4.9-4.9,4.9-12.9,0-17.9l4-4
			C437.9,176.8,437.9,138.6,414.4,115.1z M307.3,158.2l-6.6-6.6c0,0,0,0,0,0c0,0,0,0,0,0l-4.1-4.1c-0.4-0.4-0.4-1.2,0-1.6l18.7-18.7
			c0.2-0.2,0.5-0.3,0.8-0.3s0.6,0.1,0.8,0.3l10.6,10.6c0.4,0.4,0.4,1.2,0,1.6l-18.7,18.7C308.5,158.6,307.7,158.6,307.3,158.2z
			 M351,191.9c-1.5,0-3,0.6-4.1,1.7c-1.1,1.1-3.1,1.8-5.1,1.8c0,0-0.1,0-0.1,0c-1.3,0-3.7-0.3-5.5-2.1c-1.9-1.9-2.1-4.3-2.1-5.6
			c0-2,0.7-4,1.8-5.1c1.1-1.1,1.7-2.5,1.7-4.1s-0.6-3-1.7-4.1l-13.5-13.5l8.1-8.1l46.1,46.1l-8.1,8.1L355,193.5
			C353.9,192.5,352.5,191.9,351,191.9z M167.8,274.8l18.7-18.7c0.4-0.4,1.2-0.4,1.6,0l4.1,4.1c0,0,0,0,0,0c0,0,0,0,0,0l6.6,6.6
			c0.4,0.4,0.4,1.2,0,1.6l-1.3,1.3l0,0c0,0,0,0,0,0L180,287.1c-0.3,0.3-0.6,0.3-0.8,0.3c-0.2,0-0.5-0.1-0.8-0.3l-10.6-10.6
			C167.3,276,167.3,275.2,167.8,274.8z M232.7,365.7c-9.2,9.2-21.4,14.2-34.5,14.2s-25.3-5.1-34.5-14.2s-14.2-21.4-14.2-34.5
			c0-13.1,5.1-25.3,14.2-34.5l4.1-4.1l2.5,2.5c2.4,2.4,5.6,3.7,8.9,3.7c1.9,0,3.8-0.4,5.5-1.3l7.3,7.3c1.1,1.1,2.6,1.7,4.1,1.7
			s2.9-0.6,4.1-1.7c2.2-2.2,2.2-5.9,0-8.1l-6.8-6.8l8.1-8.1l13.5,13.5c1.1,1.1,2.5,1.7,4.1,1.7s3-0.6,4.1-1.7
			c1.1-1.1,3.1-1.8,5.1-1.8c1.3,0,3.7,0.2,5.6,2.1c1.9,1.9,2.1,4.3,2.1,5.6c0,2-0.7,4-1.8,5.1c-1.1,1.1-1.7,2.5-1.7,4.1
			s0.6,3,1.7,4.1l13.5,13.5l-8.1,8.1l-6.8-6.8c-2.2-2.2-5.9-2.2-8.1,0c-2.2,2.2-2.2,5.9,0,8.1l7.3,7.3c-2.3,4.7-1.6,10.6,2.4,14.5
			l2.5,2.5L232.7,365.7z M273.2,343.1l-18.7,18.7c-0.3,0.3-0.6,0.3-0.8,0.3c-0.2,0-0.5-0.1-0.8-0.3l-4.1-4.1c0,0,0,0,0,0l-6.6-6.6
			c-0.4-0.4-0.4-1.2,0-1.6l1.2-1.2c0,0,0,0,0,0c0,0,0,0,0,0l17.5-17.5c0.2-0.2,0.5-0.3,0.8-0.3s0.6,0.1,0.8,0.3l6.6,6.6h0l4.1,4.1
			C273.7,341.9,273.7,342.7,273.2,343.1z M402.3,214l-18.7,18.7c-0.3,0.3-0.6,0.3-0.8,0.3c-0.2,0-0.5-0.1-0.8-0.3l-10.6-10.6
			c-0.4-0.4-0.4-1.2,0-1.6l18.7-18.7c0.3-0.3,0.6-0.3,0.8-0.3c0.2,0,0.5,0.1,0.8,0.3v0l6.6,6.6c0,0,0,0,0,0l0,0l4.1,4.1
			C402.7,212.8,402.7,213.6,402.3,214z M399.8,193.6c-2.4-2.4-5.6-3.7-8.9-3.7c-2,0-3.9,0.5-5.6,1.3l-47.1-47.1
			c2.3-4.7,1.5-10.5-2.4-14.4l-2.5-2.5l4.1-4.1c9.2-9.2,21.4-14.2,34.5-14.2c13.1,0,25.3,5.1,34.5,14.2c9.2,9.2,14.2,21.4,14.2,34.5
			s-5.1,25.3-14.2,34.5l-4,4L399.8,193.6z"/>
		<path d="M271.4,186.6c1.5,0,2.9-0.6,4.1-1.7l0,0c2.2-2.2,2.2-5.9,0-8.1c-2.2-2.2-5.9-2.2-8.1,0c-2.2,2.2-2.2,5.9,0,8.1
			C268.5,186.1,270,186.6,271.4,186.6z"/>
		<path d="M216.4,313.1c-2.2-2.2-5.9-2.2-8.1,0c-2.2,2.2-2.2,5.9,0,8.1c1.1,1.1,2.6,1.7,4.1,1.7s2.9-0.6,4.1-1.7
			C218.6,318.9,218.6,315.3,216.4,313.1L216.4,313.1z"/>
		<path d="M274.6,208.4l-6.1,13.1l-14.4-0.2c-2,0-3.9,1-4.9,2.7c-1.1,1.7-1.2,3.8-0.3,5.6l6.4,12.9l-9.1,11.2
			c-1.3,1.5-1.6,3.6-1,5.5c0.7,1.9,2.3,3.3,4.2,3.7l14.1,3l3,14.1c0.4,2,1.8,3.6,3.7,4.2c0.6,0.2,1.3,0.3,1.9,0.3
			c1.3,0,2.6-0.4,3.6-1.3l11.2-9.1l12.9,6.4c1.8,0.9,3.9,0.8,5.6-0.3c1.7-1.1,2.7-2.9,2.7-4.9l-0.2-14.4l13.1-6.1
			c1.8-0.8,3.1-2.6,3.3-4.6c0.2-2-0.6-4-2.2-5.2l-11.4-8.8l3.4-14c0.5-1.9-0.1-4-1.5-5.4c-1.4-1.4-3.5-2-5.4-1.5l-14,3.4l-8.8-11.4
			c-1.2-1.6-3.2-2.4-5.2-2.2C277.2,205.3,275.5,206.6,274.6,208.4z M277.4,229.7l3.7-7.9l5.4,6.9c1.4,1.8,3.7,2.6,5.9,2.1l8.5-2.1
			l-2.1,8.5c-0.5,2.2,0.3,4.5,2.1,5.9l6.9,5.4l-7.9,3.7c-2.1,1-3.3,3-3.3,5.3l0.1,8.7l-7.8-3.9c-2-1-4.5-0.7-6.2,0.7l-6.8,5.5
			l-1.8-8.5c-0.5-2.2-2.2-3.9-4.4-4.4l-8.5-1.8l5.5-6.8c1.4-1.7,1.7-4.2,0.7-6.2l-3.9-7.8l8.7,0.1
			C274.3,233,276.4,231.7,277.4,229.7z"/>
	</g>
	<g>
		<g>
			<path class="st6" d="M236.4,339.2L182.2,285l-1.1,1.1c-2.7,2.7-7.1,2.7-9.7,0l-6.6-6.6l-8.1,8.1c-21.2,21.2-21.2,55.9,0,77.1
				c21.2,21.2,55.9,21.2,77.1,0l8-8l-6.6-6.6c-2.7-2.7-2.7-7.1,0-9.7L236.4,339.2z"/>
			<path class="st7" d="M182.2,285l16.2-16.2l1.3-1.3c2.7-2.7,2.7-7.1,0-9.7l-10.6-10.6c-2.7-2.7-7.1-2.7-9.7,0l-18.7,18.7
				c-2.7,2.7-2.7,7.1,0,9.7l4.1,4.1l6.6,6.6c2.7,2.7,7.1,2.7,9.7,0L182.2,285z"/>
			<path class="st8" d="M198.5,268.8L182.2,285l54.2,54.2l16.2-16.2l-17.6-17.6c4.5-4.5,5-13.6-0.3-18.8c-5.3-5.3-14.4-4.7-18.8-0.3
				L198.5,268.8z"/>
			<path class="st7" d="M252.7,323l-16.2,16.2l-1.2,1.2c-2.7,2.7-2.7,7.1,0,9.7l10.6,10.6c2.7,2.7,7.1,2.7,9.7,0l18.7-18.7
				c2.7-2.7,2.7-7.1,0-9.7l-10.6-10.6c-2.7-2.7-7.1-2.7-9.7,0L252.7,323z"/>
			<path class="st6" d="M235.1,305.4l17.6,17.6l1.2-1.2c2.7-2.7,7.1-2.7,9.7,0l6.6,6.6l100.7-100.7l-6.6-6.6c-2.7-2.7-2.7-7.1,0-9.7
				l1.2-1.2L348,192.6c-4.5,4.5-13.6,5-18.8-0.3c-5.3-5.3-4.7-14.4-0.3-18.8l-17.6-17.6l-1.3,1.3c-2.7,2.7-7.1,2.7-9.7,0l-6.6-6.6
				L193.2,251.1l6.6,6.6c2.7,2.7,2.7,7.1,0,9.7l-1.3,1.3l17.6,17.6c4.5-4.5,13.6-5,18.8,0.3C240.1,291.9,239.6,301,235.1,305.4z"/>
			<path class="st7" d="M300.2,157.3c2.7,2.7,7.1,2.7,9.7,0l17.6-17.6l1.1-1.1c2.7-2.7,2.7-7.1,0-9.7l-6.6-6.6l-4.1-4.1
				c-2.7-2.7-7.1-2.7-9.7,0l-18.7,18.7c-2.7,2.7-2.7,7.1,0,9.7L300.2,157.3z"/>
			<path class="st8" d="M311.3,155.9l17.6,17.6c-4.5,4.5-5,13.6,0.3,18.8c5.3,5.3,14.4,4.7,18.8,0.3l17.6,17.6l16.2-16.2l-54.2-54.2
				L311.3,155.9z"/>
			<path class="st7" d="M381.7,193.9l-16.2,16.2l-1.2,1.2c-2.7,2.7-2.7,7.1,0,9.7l6.6,6.6l4.1,4.1c2.7,2.7,7.1,2.7,9.7,0l18.7-18.7
				c2.7-2.7,2.7-7.1,0-9.7l-4.1-4.1l-6.6-6.6c-2.7-2.7-7.1-2.7-9.7,0L381.7,193.9z"/>
			<path class="st6" d="M327.5,139.7l54.2,54.2l1.2-1.2c2.7-2.7,7.1-2.7,9.7,0l6.6,6.6l8-8c21.2-21.2,21.2-55.9,0-77.1
				c-21.2-21.2-55.9-21.2-77.1,0l-8.1,8.1l6.6,6.6c2.7,2.7,2.7,7.1,0,9.7L327.5,139.7z"/>
			<path class="st8" d="M305.6,215.9l-4.3,17.6l14.3,11.1l-16.5,7.7l0.2,18.1l-16.2-8.1l-14,11.5l-3.8-17.7l-17.7-3.8l11.5-14
				L251,222l18.1,0.2l7.7-16.5l11.1,14.3L305.6,215.9z"/>
		</g>
		<path d="M411.4,110.1c-11.3-11.3-26.5-17.6-42.6-17.6s-31.3,6.2-42.6,17.6l-4.1,4.1h0c-4.9-4.9-12.9-4.9-17.9,0l-18.7,18.7
			c-4.9,4.9-4.9,12.9,0,17.9l-4.9,4.9c-2.2,2.2-2.2,5.9,0,8.1c1.1,1.1,2.6,1.7,4.1,1.7s2.9-0.6,4.1-1.7l4.9-4.9l2.5,2.5
			c2.5,2.5,5.7,3.7,8.9,3.7c2,0,4-0.5,5.8-1.4l10.6,10.6c-1.2,2.5-1.8,5.4-1.9,8.3c0,5.3,1.9,10.3,5.5,13.8
			c3.6,3.6,8.5,5.5,13.8,5.5c3,0,5.8-0.7,8.3-1.9l10.6,10.6c-2.3,4.7-1.6,10.6,2.4,14.6l2.5,2.5l-92.5,92.5l-2.5-2.5
			c-3.9-3.9-9.8-4.7-14.6-2.4l-10.6-10.6c1.2-2.5,1.8-5.4,1.9-8.3c0-5.3-1.9-10.2-5.5-13.8c-3.6-3.6-8.5-5.5-13.8-5.5
			c-3,0-5.8,0.7-8.3,1.9l-10.6-10.6c2.4-4.7,1.7-10.7-2.3-14.7l-2.5-2.5l54.9-54.9c2.2-2.2,2.2-5.9,0-8.1c-2.2-2.2-5.9-2.2-8.1,0
			L193.2,243c-4.9-4.9-12.9-4.9-17.9,0l-18.7,18.7c-4.9,4.9-4.9,12.9,0,17.9l-4.1,4.1C141.2,295,135,310.1,135,326.2
			s6.2,31.3,17.6,42.6s26.5,17.6,42.6,17.6s31.3-6.2,42.6-17.6l4-4c2.4,2.4,5.6,3.7,8.9,3.7c3.4,0,6.6-1.3,8.9-3.7l18.7-18.7
			c4.9-4.9,4.9-12.9,0-17.9l92.5-92.5c2.4,2.4,5.6,3.7,8.9,3.7c3.4,0,6.6-1.3,8.9-3.7l18.7-18.7c4.9-4.9,4.9-12.9,0-17.9l4-4
			C434.9,171.8,434.9,133.6,411.4,110.1z M304.3,153.2l-6.6-6.6c0,0,0,0,0,0c0,0,0,0,0,0l-4.1-4.1c-0.4-0.4-0.4-1.2,0-1.6l18.7-18.7
			c0.2-0.2,0.5-0.3,0.8-0.3s0.6,0.1,0.8,0.3l10.6,10.6c0.4,0.4,0.4,1.2,0,1.6l-18.7,18.7C305.5,153.6,304.7,153.6,304.3,153.2z
			 M348,186.9c-1.5,0-3,0.6-4.1,1.7c-1.1,1.1-3.1,1.8-5.1,1.8c0,0-0.1,0-0.1,0c-1.3,0-3.7-0.3-5.5-2.1c-1.9-1.9-2.1-4.3-2.1-5.6
			c0-2,0.7-4,1.8-5.1c1.1-1.1,1.7-2.5,1.7-4.1s-0.6-3-1.7-4.1l-13.5-13.5l8.1-8.1l46.1,46.1l-8.1,8.1L352,188.5
			C350.9,187.5,349.5,186.9,348,186.9z M164.8,269.8l18.7-18.7c0.4-0.4,1.2-0.4,1.6,0l4.1,4.1c0,0,0,0,0,0c0,0,0,0,0,0l6.6,6.6
			c0.4,0.4,0.4,1.2,0,1.6l-1.3,1.3l0,0c0,0,0,0,0,0L177,282.1c-0.3,0.3-0.6,0.3-0.8,0.3c-0.2,0-0.5-0.1-0.8-0.3l-10.6-10.6
			C164.3,271,164.3,270.2,164.8,269.8z M229.7,360.7c-9.2,9.2-21.4,14.2-34.5,14.2s-25.3-5.1-34.5-14.2s-14.2-21.4-14.2-34.5
			c0-13.1,5.1-25.3,14.2-34.5l4.1-4.1l2.5,2.5c2.4,2.4,5.6,3.7,8.9,3.7c1.9,0,3.8-0.4,5.5-1.3l7.3,7.3c1.1,1.1,2.6,1.7,4.1,1.7
			s2.9-0.6,4.1-1.7c2.2-2.2,2.2-5.9,0-8.1l-6.8-6.8l8.1-8.1l13.5,13.5c1.1,1.1,2.5,1.7,4.1,1.7s3-0.6,4.1-1.7
			c1.1-1.1,3.1-1.8,5.1-1.8c1.3,0,3.7,0.2,5.6,2.1c1.9,1.9,2.1,4.3,2.1,5.6c0,2-0.7,4-1.8,5.1c-1.1,1.1-1.7,2.5-1.7,4.1
			s0.6,3,1.7,4.1l13.5,13.5l-8.1,8.1l-6.8-6.8c-2.2-2.2-5.9-2.2-8.1,0c-2.2,2.2-2.2,5.9,0,8.1l7.3,7.3c-2.3,4.7-1.6,10.6,2.4,14.5
			l2.5,2.5L229.7,360.7z M270.2,338.1l-18.7,18.7c-0.3,0.3-0.6,0.3-0.8,0.3c-0.2,0-0.5-0.1-0.8-0.3l-4.1-4.1c0,0,0,0,0,0l-6.6-6.6
			c-0.4-0.4-0.4-1.2,0-1.6l1.2-1.2c0,0,0,0,0,0c0,0,0,0,0,0l17.5-17.5c0.2-0.2,0.5-0.3,0.8-0.3s0.6,0.1,0.8,0.3l6.6,6.6h0l4.1,4.1
			C270.7,336.9,270.7,337.7,270.2,338.1z M399.3,209l-18.7,18.7c-0.3,0.3-0.6,0.3-0.8,0.3c-0.2,0-0.5-0.1-0.8-0.3l-10.6-10.6
			c-0.4-0.4-0.4-1.2,0-1.6l18.7-18.7c0.3-0.3,0.6-0.3,0.8-0.3c0.2,0,0.5,0.1,0.8,0.3v0l6.6,6.6c0,0,0,0,0,0l0,0l4.1,4.1
			C399.7,207.8,399.7,208.6,399.3,209z M396.8,188.6c-2.4-2.4-5.6-3.7-8.9-3.7c-2,0-3.9,0.5-5.6,1.3l-47.1-47.1
			c2.3-4.7,1.5-10.5-2.4-14.4l-2.5-2.5l4.1-4.1c9.2-9.2,21.4-14.2,34.5-14.2c13.1,0,25.3,5.1,34.5,14.2c9.2,9.2,14.2,21.4,14.2,34.5
			s-5.1,25.3-14.2,34.5l-4,4L396.8,188.6z"/>
		<path d="M268.4,181.6c1.5,0,2.9-0.6,4.1-1.7l0,0c2.2-2.2,2.2-5.9,0-8.1c-2.2-2.2-5.9-2.2-8.1,0c-2.2,2.2-2.2,5.9,0,8.1
			C265.5,181.1,267,181.6,268.4,181.6z"/>
		<path d="M213.4,308.1c-2.2-2.2-5.9-2.2-8.1,0c-2.2,2.2-2.2,5.9,0,8.1c1.1,1.1,2.6,1.7,4.1,1.7s2.9-0.6,4.1-1.7
			C215.6,313.9,215.6,310.3,213.4,308.1L213.4,308.1z"/>
		<path d="M271.6,203.4l-6.1,13.1l-14.4-0.2c-2,0-3.9,1-4.9,2.7c-1.1,1.7-1.2,3.8-0.3,5.6l6.4,12.9l-9.1,11.2
			c-1.3,1.5-1.6,3.6-1,5.5c0.7,1.9,2.3,3.3,4.2,3.7l14.1,3l3,14.1c0.4,2,1.8,3.6,3.7,4.2c0.6,0.2,1.3,0.3,1.9,0.3
			c1.3,0,2.6-0.4,3.6-1.3l11.2-9.1l12.9,6.4c1.8,0.9,3.9,0.8,5.6-0.3c1.7-1.1,2.7-2.9,2.7-4.9l-0.2-14.4l13.1-6.1
			c1.8-0.8,3.1-2.6,3.3-4.6c0.2-2-0.6-4-2.2-5.2l-11.4-8.8l3.4-14c0.5-1.9-0.1-4-1.5-5.4c-1.4-1.4-3.5-2-5.4-1.5l-14,3.4l-8.8-11.4
			c-1.2-1.6-3.2-2.4-5.2-2.2C274.2,200.3,272.5,201.6,271.6,203.4z M274.4,224.7l3.7-7.9l5.4,6.9c1.4,1.8,3.7,2.6,5.9,2.1l8.5-2.1
			l-2.1,8.5c-0.5,2.2,0.3,4.5,2.1,5.9l6.9,5.4l-7.9,3.7c-2.1,1-3.3,3-3.3,5.3l0.1,8.7l-7.8-3.9c-2-1-4.5-0.7-6.2,0.7l-6.8,5.5
			l-1.8-8.5c-0.5-2.2-2.2-3.9-4.4-4.4l-8.5-1.8l5.5-6.8c1.4-1.7,1.7-4.2,0.7-6.2l-3.9-7.8l8.7,0.1
			C271.3,228,273.4,226.7,274.4,224.7z"/>
	</g>
</g>
<g>
	<path class="st0" d="M436,447H79c-6.6,0-12-5.4-12-12V78c0-6.6,5.4-12,12-12h357c6.6,0,12,5.4,12,12v357
		C448,441.6,442.6,447,436,447z"/>
	<path class="st1" d="M67.3,209.8c0,0,44,106.7,81.3,103.6s78-60,112.7-58.9s129.3,71.1,158.7,82.3c29.3,11.2,29.3,11.2,29.3,11.2
		L448,85.3c0,0,2-14.7-12-18.3c-14-3.6-357,0-357,0s-11,3.6-12,18.3S67.3,209.8,67.3,209.8z"/>
	<path class="st2" d="M67.3,191.6c0,0,44,93.2,81.3,90.6c37.3-2.7,78-52.4,112.7-51.5s129.3,62.1,158.7,71.9
		c29.3,9.8,29.3,9.8,29.3,9.8L448,82.8c0,0,2-12.9-12-16c-14-3.1-357,0-357,0s-11,3.1-12,16S67.3,191.6,67.3,191.6z"/>
	<path class="st3" d="M436,447.5H79c-6.6,0-12-5.4-12-12v-357c0-6.6,5.4-12,12-12h357c6.6,0,12,5.4,12,12v357
		C448,442.1,442.6,447.5,436,447.5z"/>
	<path class="st4" d="M344.8,214.1c6,0,10.9,4.9,10.9,10.9c0,6-4.9,10.9-10.9,10.9c-34.8,0-64.6,26-69.3,60.5
		c-0.7,5.5-5.4,9.4-10.8,9.4c-0.5,0-1,0-1.5-0.1c-6-0.8-10.2-6.3-9.3-12.3C260,248.2,299.1,214.1,344.8,214.1z"/>
	<g>
		<path class="st5" d="M207.5,137.7c10.8,0.2,19.5,9,19.5,19.8c0,10.9-8.9,19.8-19.8,19.8h-52c-12.3,0-22.3-10-22.3-22.3
			c0-12.3,10-22.3,22.3-22.3c0.1,0,0.2,0,0.3,0c1.2-5.5,4.1-10.6,8.4-14.3c4.8-4.2,11-6.6,17.4-6.6
			C195.6,111.8,207.3,123.4,207.5,137.7z M223,157.5c0-8.7-7.1-15.7-15.7-15.7c-0.5,0-1.1,0-1.6,0.1c-0.6,0.1-1.2-0.1-1.6-0.6
			c-0.4-0.4-0.6-1-0.6-1.6l0-0.2c0-0.5,0.1-0.9,0.1-1.4c0-12.3-10-22.3-22.3-22.3c-5.4,0-10.6,2-14.7,5.5c-4,3.5-6.6,8.4-7.4,13.7
			c-0.1,1.1-1.1,1.8-2.2,1.7c-0.6-0.1-1.2-0.1-1.7-0.1c-10.1,0-18.3,8.2-18.3,18.3c0,10.1,8.2,18.3,18.3,18.3h52
			C215.9,173.2,223,166.2,223,157.5z"/>
		<path class="st5" d="M207.2,141.7c8.7,0,15.7,7.1,15.7,15.7c0,8.7-7.1,15.7-15.7,15.7h-52c-10.1,0-18.3-8.2-18.3-18.3
			c0-10.1,8.2-18.3,18.3-18.3c0.5,0,1.1,0,1.7,0.1c1.1,0.1,2-0.7,2.2-1.7c0.7-5.3,3.3-10.2,7.4-13.7c4.1-3.6,9.3-5.5,14.7-5.5
			c12.3,0,22.3,10,22.3,22.3c0,0.4,0,0.9-0.1,1.4l0,0.2c0,0.6,0.2,1.2,0.6,1.6c0.4,0.4,1,0.6,1.6,0.6
			C206.2,141.7,206.7,141.7,207.2,141.7z M183.2,123.2c0-1.1-0.9-2-2-2c-8.4,0-15.6,6.3-16.7,14.6c-0.1,1.1,0.6,2.1,1.7,2.3
			c0.1,0,0.2,0,0.3,0c1,0,1.8-0.7,2-1.7c0.9-6.3,6.3-11.1,12.7-11.1C182.3,125.2,183.2,124.3,183.2,123.2z"/>
		<path class="st5" d="M181.2,121.2c1.1,0,2,0.9,2,2c0,1.1-0.9,2-2,2c-6.4,0-11.9,4.8-12.7,11.1c-0.1,1-1,1.7-2,1.7
			c-0.1,0-0.2,0-0.3,0c-1.1-0.1-1.9-1.2-1.7-2.3C165.7,127.5,172.9,121.2,181.2,121.2z"/>
	</g>
	<g>
		<path class="st5" d="M414.2,225.7c10.8,0.2,19.5,9,19.5,19.8c0,10.9-8.9,19.8-19.8,19.8h-52c-12.3,0-22.3-10-22.3-22.3
			c0-12.3,10-22.3,22.3-22.3c0.1,0,0.2,0,0.3,0c1.2-5.5,4.1-10.6,8.4-14.3c4.8-4.2,11-6.6,17.4-6.6
			C402.3,199.8,414,211.4,414.2,225.7z M429.7,245.5c0-8.7-7.1-15.7-15.7-15.7c-0.5,0-1.1,0-1.6,0.1c-0.6,0.1-1.2-0.1-1.6-0.6
			c-0.4-0.4-0.6-1-0.6-1.6l0-0.2c0-0.5,0.1-0.9,0.1-1.4c0-12.3-10-22.3-22.3-22.3c-5.4,0-10.6,2-14.7,5.5c-4,3.5-6.6,8.4-7.4,13.7
			c-0.1,1.1-1.1,1.8-2.2,1.7c-0.6-0.1-1.2-0.1-1.7-0.1c-10.1,0-18.3,8.2-18.3,18.3c0,10.1,8.2,18.3,18.3,18.3h52
			C422.6,261.2,429.7,254.2,429.7,245.5z"/>
		<path class="st5" d="M413.9,229.7c8.7,0,15.7,7.1,15.7,15.7c0,8.7-7.1,15.7-15.7,15.7h-52c-10.1,0-18.3-8.2-18.3-18.3
			c0-10.1,8.2-18.3,18.3-18.3c0.5,0,1.1,0,1.7,0.1c1.1,0.1,2-0.7,2.2-1.7c0.7-5.3,3.3-10.2,7.4-13.7c4.1-3.6,9.3-5.5,14.7-5.5
			c12.3,0,22.3,10,22.3,22.3c0,0.4,0,0.9-0.1,1.4l0,0.2c0,0.6,0.2,1.2,0.6,1.6c0.4,0.4,1,0.6,1.6,0.6
			C412.8,229.7,413.4,229.7,413.9,229.7z M389.9,211.2c0-1.1-0.9-2-2-2c-8.4,0-15.6,6.3-16.7,14.6c-0.1,1.1,0.6,2.1,1.7,2.3
			c0.1,0,0.2,0,0.3,0c1,0,1.8-0.7,2-1.7c0.9-6.3,6.3-11.1,12.7-11.1C389,213.2,389.9,212.3,389.9,211.2z"/>
		<path class="st5" d="M387.9,209.2c1.1,0,2,0.9,2,2c0,1.1-0.9,2-2,2c-6.4,0-11.9,4.8-12.7,11.1c-0.1,1-1,1.7-2,1.7
			c-0.1,0-0.2,0-0.3,0c-1.1-0.1-1.9-1.2-1.7-2.3C372.3,215.5,379.5,209.2,387.9,209.2z"/>
	</g>
	<g>
		<g>
			<path class="st6" d="M219.4,364.2L165.2,310l-1.1,1.1c-2.7,2.7-7.1,2.7-9.7,0l-6.6-6.6l-8.1,8.1c-21.2,21.2-21.2,55.9,0,77.1
				c21.2,21.2,55.9,21.2,77.1,0l8-8l-6.6-6.6c-2.7-2.7-2.7-7.1,0-9.7L219.4,364.2z"/>
			<path class="st7" d="M165.2,310l16.2-16.2l1.3-1.3c2.7-2.7,2.7-7.1,0-9.7l-10.6-10.6c-2.7-2.7-7.1-2.7-9.7,0l-18.7,18.7
				c-2.7,2.7-2.7,7.1,0,9.7l4.1,4.1l6.6,6.6c2.7,2.7,7.1,2.7,9.7,0L165.2,310z"/>
			<path class="st8" d="M181.5,293.8L165.2,310l54.2,54.2l16.2-16.2l-17.6-17.6c4.5-4.5,5-13.6-0.3-18.8c-5.3-5.3-14.4-4.7-18.8-0.3
				L181.5,293.8z"/>
			<path class="st7" d="M235.7,348l-16.2,16.2l-1.2,1.2c-2.7,2.7-2.7,7.1,0,9.7l10.6,10.6c2.7,2.7,7.1,2.7,9.7,0l18.7-18.7
				c2.7-2.7,2.7-7.1,0-9.7l-10.6-10.6c-2.7-2.7-7.1-2.7-9.7,0L235.7,348z"/>
			<path class="st6" d="M218.1,330.4l17.6,17.6l1.2-1.2c2.7-2.7,7.1-2.7,9.7,0l6.6,6.6l100.7-100.7l-6.6-6.6c-2.7-2.7-2.7-7.1,0-9.7
				l1.2-1.2L331,217.6c-4.5,4.5-13.6,5-18.8-0.3c-5.3-5.3-4.7-14.4-0.3-18.8l-17.6-17.6l-1.3,1.3c-2.7,2.7-7.1,2.7-9.7,0l-6.6-6.6
				L176.2,276.1l6.6,6.6c2.7,2.7,2.7,7.1,0,9.7l-1.3,1.3l17.6,17.6c4.5-4.5,13.6-5,18.8,0.3C223.1,316.9,222.6,326,218.1,330.4z"/>
			<path class="st7" d="M283.2,182.3c2.7,2.7,7.1,2.7,9.7,0l17.6-17.6l1.1-1.1c2.7-2.7,2.7-7.1,0-9.7l-6.6-6.6l-4.1-4.1
				c-2.7-2.7-7.1-2.7-9.7,0l-18.7,18.7c-2.7,2.7-2.7,7.1,0,9.7L283.2,182.3z"/>
			<path class="st8" d="M294.3,180.9l17.6,17.6c-4.5,4.5-5,13.6,0.3,18.8c5.3,5.3,14.4,4.7,18.8,0.3l17.6,17.6l16.2-16.2l-54.2-54.2
				L294.3,180.9z"/>
			<path class="st7" d="M364.7,218.9l-16.2,16.2l-1.2,1.2c-2.7,2.7-2.7,7.1,0,9.7l6.6,6.6l4.1,4.1c2.7,2.7,7.1,2.7,9.7,0l18.7-18.7
				c2.7-2.7,2.7-7.1,0-9.7l-4.1-4.1l-6.6-6.6c-2.7-2.7-7.1-2.7-9.7,0L364.7,218.9z"/>
			<path class="st6" d="M310.5,164.7l54.2,54.2l1.2-1.2c2.7-2.7,7.1-2.7,9.7,0l6.6,6.6l8-8c21.2-21.2,21.2-55.9,0-77.1
				c-21.2-21.2-55.9-21.2-77.1,0l-8.1,8.1l6.6,6.6c2.7,2.7,2.7,7.1,0,9.7L310.5,164.7z"/>
			<path class="st8" d="M288.6,240.9l-4.3,17.6l14.3,11.1l-16.5,7.7l0.2,18.1l-16.2-8.1l-14,11.5l-3.8-17.7l-17.7-3.8l11.5-14
				L234,247l18.1,0.2l7.7-16.5l11.1,14.3L288.6,240.9z"/>
		</g>
		<path d="M394.4,135.1c-11.3-11.3-26.5-17.6-42.6-17.6s-31.3,6.2-42.6,17.6l-4.1,4.1h0c-4.9-4.9-12.9-4.9-17.9,0l-18.7,18.7
			c-4.9,4.9-4.9,12.9,0,17.9l-4.9,4.9c-2.2,2.2-2.2,5.9,0,8.1c1.1,1.1,2.6,1.7,4.1,1.7s2.9-0.6,4.1-1.7l4.9-4.9l2.5,2.5
			c2.5,2.5,5.7,3.7,8.9,3.7c2,0,4-0.5,5.8-1.4l10.6,10.6c-1.2,2.5-1.8,5.4-1.9,8.3c0,5.3,1.9,10.3,5.5,13.8
			c3.6,3.6,8.5,5.5,13.8,5.5c3,0,5.8-0.7,8.3-1.9l10.6,10.6c-2.3,4.7-1.6,10.6,2.4,14.6l2.5,2.5l-92.5,92.5l-2.5-2.5
			c-3.9-3.9-9.8-4.7-14.6-2.4l-10.6-10.6c1.2-2.5,1.8-5.4,1.9-8.3c0-5.3-1.9-10.2-5.5-13.8c-3.6-3.6-8.5-5.5-13.8-5.5
			c-3,0-5.8,0.7-8.3,1.9l-10.6-10.6c2.4-4.7,1.7-10.7-2.3-14.7l-2.5-2.5l54.9-54.9c2.2-2.2,2.2-5.9,0-8.1c-2.2-2.2-5.9-2.2-8.1,0
			L176.2,268c-4.9-4.9-12.9-4.9-17.9,0l-18.7,18.7c-4.9,4.9-4.9,12.9,0,17.9l-4.1,4.1C124.2,320,118,335.1,118,351.2
			s6.2,31.3,17.6,42.6s26.5,17.6,42.6,17.6s31.3-6.2,42.6-17.6l4-4c2.4,2.4,5.6,3.7,8.9,3.7c3.4,0,6.6-1.3,8.9-3.7l18.7-18.7
			c4.9-4.9,4.9-12.9,0-17.9l92.5-92.5c2.4,2.4,5.6,3.7,8.9,3.7c3.4,0,6.6-1.3,8.9-3.7l18.7-18.7c4.9-4.9,4.9-12.9,0-17.9l4-4
			C417.9,196.8,417.9,158.6,394.4,135.1z M287.3,178.2l-6.6-6.6c0,0,0,0,0,0c0,0,0,0,0,0l-4.1-4.1c-0.4-0.4-0.4-1.2,0-1.6l18.7-18.7
			c0.2-0.2,0.5-0.3,0.8-0.3s0.6,0.1,0.8,0.3l10.6,10.6c0.4,0.4,0.4,1.2,0,1.6l-18.7,18.7C288.5,178.6,287.7,178.6,287.3,178.2z
			 M331,211.9c-1.5,0-3,0.6-4.1,1.7c-1.1,1.1-3.1,1.8-5.1,1.8c0,0-0.1,0-0.1,0c-1.3,0-3.7-0.3-5.5-2.1c-1.9-1.9-2.1-4.3-2.1-5.6
			c0-2,0.7-4,1.8-5.1c1.1-1.1,1.7-2.5,1.7-4.1s-0.6-3-1.7-4.1l-13.5-13.5l8.1-8.1l46.1,46.1l-8.1,8.1L335,213.5
			C333.9,212.5,332.5,211.9,331,211.9z M147.8,294.8l18.7-18.7c0.4-0.4,1.2-0.4,1.6,0l4.1,4.1c0,0,0,0,0,0c0,0,0,0,0,0l6.6,6.6
			c0.4,0.4,0.4,1.2,0,1.6l-1.3,1.3l0,0c0,0,0,0,0,0L160,307.1c-0.3,0.3-0.6,0.3-0.8,0.3c-0.2,0-0.5-0.1-0.8-0.3l-10.6-10.6
			C147.3,296,147.3,295.2,147.8,294.8z M212.7,385.7c-9.2,9.2-21.4,14.2-34.5,14.2s-25.3-5.1-34.5-14.2s-14.2-21.4-14.2-34.5
			c0-13.1,5.1-25.3,14.2-34.5l4.1-4.1l2.5,2.5c2.4,2.4,5.6,3.7,8.9,3.7c1.9,0,3.8-0.4,5.5-1.3l7.3,7.3c1.1,1.1,2.6,1.7,4.1,1.7
			s2.9-0.6,4.1-1.7c2.2-2.2,2.2-5.9,0-8.1l-6.8-6.8l8.1-8.1l13.5,13.5c1.1,1.1,2.5,1.7,4.1,1.7s3-0.6,4.1-1.7
			c1.1-1.1,3.1-1.8,5.1-1.8c1.3,0,3.7,0.2,5.6,2.1c1.9,1.9,2.1,4.3,2.1,5.6c0,2-0.7,4-1.8,5.1c-1.1,1.1-1.7,2.5-1.7,4.1
			s0.6,3,1.7,4.1l13.5,13.5l-8.1,8.1l-6.8-6.8c-2.2-2.2-5.9-2.2-8.1,0c-2.2,2.2-2.2,5.9,0,8.1l7.3,7.3c-2.3,4.7-1.6,10.6,2.4,14.5
			l2.5,2.5L212.7,385.7z M253.2,363.1l-18.7,18.7c-0.3,0.3-0.6,0.3-0.8,0.3c-0.2,0-0.5-0.1-0.8-0.3l-4.1-4.1c0,0,0,0,0,0l-6.6-6.6
			c-0.4-0.4-0.4-1.2,0-1.6l1.2-1.2c0,0,0,0,0,0c0,0,0,0,0,0l17.5-17.5c0.2-0.2,0.5-0.3,0.8-0.3s0.6,0.1,0.8,0.3l6.6,6.6h0l4.1,4.1
			C253.7,361.9,253.7,362.7,253.2,363.1z M382.3,234l-18.7,18.7c-0.3,0.3-0.6,0.3-0.8,0.3c-0.2,0-0.5-0.1-0.8-0.3l-10.6-10.6
			c-0.4-0.4-0.4-1.2,0-1.6l18.7-18.7c0.3-0.3,0.6-0.3,0.8-0.3c0.2,0,0.5,0.1,0.8,0.3v0l6.6,6.6c0,0,0,0,0,0l0,0l4.1,4.1
			C382.7,232.8,382.7,233.6,382.3,234z M379.8,213.6c-2.4-2.4-5.6-3.7-8.9-3.7c-2,0-3.9,0.5-5.6,1.3l-47.1-47.1
			c2.3-4.7,1.5-10.5-2.4-14.4l-2.5-2.5l4.1-4.1c9.2-9.2,21.4-14.2,34.5-14.2c13.1,0,25.3,5.1,34.5,14.2c9.2,9.2,14.2,21.4,14.2,34.5
			s-5.1,25.3-14.2,34.5l-4,4L379.8,213.6z"/>
		<path d="M251.4,206.6c1.5,0,2.9-0.6,4.1-1.7l0,0c2.2-2.2,2.2-5.9,0-8.1c-2.2-2.2-5.9-2.2-8.1,0c-2.2,2.2-2.2,5.9,0,8.1
			C248.5,206.1,250,206.6,251.4,206.6z"/>
		<path d="M196.4,333.1c-2.2-2.2-5.9-2.2-8.1,0c-2.2,2.2-2.2,5.9,0,8.1c1.1,1.1,2.6,1.7,4.1,1.7s2.9-0.6,4.1-1.7
			C198.6,338.9,198.6,335.3,196.4,333.1L196.4,333.1z"/>
		<path d="M254.6,228.4l-6.1,13.1l-14.4-0.2c-2,0-3.9,1-4.9,2.7c-1.1,1.7-1.2,3.8-0.3,5.6l6.4,12.9l-9.1,11.2
			c-1.3,1.5-1.6,3.6-1,5.5c0.7,1.9,2.3,3.3,4.2,3.7l14.1,3l3,14.1c0.4,2,1.8,3.6,3.7,4.2c0.6,0.2,1.3,0.3,1.9,0.3
			c1.3,0,2.6-0.4,3.6-1.3l11.2-9.1l12.9,6.4c1.8,0.9,3.9,0.8,5.6-0.3c1.7-1.1,2.7-2.9,2.7-4.9l-0.2-14.4l13.1-6.1
			c1.8-0.8,3.1-2.6,3.3-4.6c0.2-2-0.6-4-2.2-5.2l-11.4-8.8l3.4-14c0.5-1.9-0.1-4-1.5-5.4c-1.4-1.4-3.5-2-5.4-1.5l-14,3.4l-8.8-11.4
			c-1.2-1.6-3.2-2.4-5.2-2.2C257.2,225.3,255.5,226.6,254.6,228.4z M257.4,249.7l3.7-7.9l5.4,6.9c1.4,1.8,3.7,2.6,5.9,2.1l8.5-2.1
			l-2.1,8.5c-0.5,2.2,0.3,4.5,2.1,5.9l6.9,5.4l-7.9,3.7c-2.1,1-3.3,3-3.3,5.3l0.1,8.7l-7.8-3.9c-2-1-4.5-0.7-6.2,0.7l-6.8,5.5
			l-1.8-8.5c-0.5-2.2-2.2-3.9-4.4-4.4l-8.5-1.8l5.5-6.8c1.4-1.7,1.7-4.2,0.7-6.2l-3.9-7.8l8.7,0.1
			C254.3,253,256.4,251.7,257.4,249.7z"/>
	</g>
	<g>
		<g>
			<path class="st6" d="M216.4,359.2L162.2,305l-1.1,1.1c-2.7,2.7-7.1,2.7-9.7,0l-6.6-6.6l-8.1,8.1c-21.2,21.2-21.2,55.9,0,77.1
				c21.2,21.2,55.9,21.2,77.1,0l8-8l-6.6-6.6c-2.7-2.7-2.7-7.1,0-9.7L216.4,359.2z"/>
			<path class="st7" d="M162.2,305l16.2-16.2l1.3-1.3c2.7-2.7,2.7-7.1,0-9.7l-10.6-10.6c-2.7-2.7-7.1-2.7-9.7,0l-18.7,18.7
				c-2.7,2.7-2.7,7.1,0,9.7l4.1,4.1l6.6,6.6c2.7,2.7,7.1,2.7,9.7,0L162.2,305z"/>
			<path class="st8" d="M178.5,288.8L162.2,305l54.2,54.2l16.2-16.2l-17.6-17.6c4.5-4.5,5-13.6-0.3-18.8c-5.3-5.3-14.4-4.7-18.8-0.3
				L178.5,288.8z"/>
			<path class="st7" d="M232.7,343l-16.2,16.2l-1.2,1.2c-2.7,2.7-2.7,7.1,0,9.7l10.6,10.6c2.7,2.7,7.1,2.7,9.7,0l18.7-18.7
				c2.7-2.7,2.7-7.1,0-9.7l-10.6-10.6c-2.7-2.7-7.1-2.7-9.7,0L232.7,343z"/>
			<path class="st6" d="M215.1,325.4l17.6,17.6l1.2-1.2c2.7-2.7,7.1-2.7,9.7,0l6.6,6.6l100.7-100.7l-6.6-6.6c-2.7-2.7-2.7-7.1,0-9.7
				l1.2-1.2L328,212.6c-4.5,4.5-13.6,5-18.8-0.3c-5.3-5.3-4.7-14.4-0.3-18.8l-17.6-17.6l-1.3,1.3c-2.7,2.7-7.1,2.7-9.7,0l-6.6-6.6
				L173.2,271.1l6.6,6.6c2.7,2.7,2.7,7.1,0,9.7l-1.3,1.3l17.6,17.6c4.5-4.5,13.6-5,18.8,0.3C220.1,311.9,219.6,321,215.1,325.4z"/>
			<path class="st7" d="M280.2,177.3c2.7,2.7,7.1,2.7,9.7,0l17.6-17.6l1.1-1.1c2.7-2.7,2.7-7.1,0-9.7l-6.6-6.6l-4.1-4.1
				c-2.7-2.7-7.1-2.7-9.7,0l-18.7,18.7c-2.7,2.7-2.7,7.1,0,9.7L280.2,177.3z"/>
			<path class="st8" d="M291.3,175.9l17.6,17.6c-4.5,4.5-5,13.6,0.3,18.8c5.3,5.3,14.4,4.7,18.8,0.3l17.6,17.6l16.2-16.2l-54.2-54.2
				L291.3,175.9z"/>
			<path class="st7" d="M361.7,213.9l-16.2,16.2l-1.2,1.2c-2.7,2.7-2.7,7.1,0,9.7l6.6,6.6l4.1,4.1c2.7,2.7,7.1,2.7,9.7,0l18.7-18.7
				c2.7-2.7,2.7-7.1,0-9.7l-4.1-4.1l-6.6-6.6c-2.7-2.7-7.1-2.7-9.7,0L361.7,213.9z"/>
			<path class="st6" d="M307.5,159.7l54.2,54.2l1.2-1.2c2.7-2.7,7.1-2.7,9.7,0l6.6,6.6l8-8c21.2-21.2,21.2-55.9,0-77.1
				c-21.2-21.2-55.9-21.2-77.1,0l-8.1,8.1l6.6,6.6c2.7,2.7,2.7,7.1,0,9.7L307.5,159.7z"/>
			<path class="st8" d="M285.6,235.9l-4.3,17.6l14.3,11.1l-16.5,7.7l0.2,18.1l-16.2-8.1l-14,11.5l-3.8-17.7l-17.7-3.8l11.5-14
				L231,242l18.1,0.2l7.7-16.5l11.1,14.3L285.6,235.9z"/>
		</g>
		<path d="M391.4,130.1c-11.3-11.3-26.5-17.6-42.6-17.6s-31.3,6.2-42.6,17.6l-4.1,4.1h0c-4.9-4.9-12.9-4.9-17.9,0l-18.7,18.7
			c-4.9,4.9-4.9,12.9,0,17.9l-4.9,4.9c-2.2,2.2-2.2,5.9,0,8.1c1.1,1.1,2.6,1.7,4.1,1.7s2.9-0.6,4.1-1.7l4.9-4.9l2.5,2.5
			c2.5,2.5,5.7,3.7,8.9,3.7c2,0,4-0.5,5.8-1.4l10.6,10.6c-1.2,2.5-1.8,5.4-1.9,8.3c0,5.3,1.9,10.3,5.5,13.8
			c3.6,3.6,8.5,5.5,13.8,5.5c3,0,5.8-0.7,8.3-1.9l10.6,10.6c-2.3,4.7-1.6,10.6,2.4,14.6l2.5,2.5l-92.5,92.5l-2.5-2.5
			c-3.9-3.9-9.8-4.7-14.6-2.4l-10.6-10.6c1.2-2.5,1.8-5.4,1.9-8.3c0-5.3-1.9-10.2-5.5-13.8c-3.6-3.6-8.5-5.5-13.8-5.5
			c-3,0-5.8,0.7-8.3,1.9l-10.6-10.6c2.4-4.7,1.7-10.7-2.3-14.7l-2.5-2.5l54.9-54.9c2.2-2.2,2.2-5.9,0-8.1c-2.2-2.2-5.9-2.2-8.1,0
			L173.2,263c-4.9-4.9-12.9-4.9-17.9,0l-18.7,18.7c-4.9,4.9-4.9,12.9,0,17.9l-4.1,4.1C121.2,315,115,330.1,115,346.2
			s6.2,31.3,17.6,42.6s26.5,17.6,42.6,17.6s31.3-6.2,42.6-17.6l4-4c2.4,2.4,5.6,3.7,8.9,3.7c3.4,0,6.6-1.3,8.9-3.7l18.7-18.7
			c4.9-4.9,4.9-12.9,0-17.9l92.5-92.5c2.4,2.4,5.6,3.7,8.9,3.7c3.4,0,6.6-1.3,8.9-3.7l18.7-18.7c4.9-4.9,4.9-12.9,0-17.9l4-4
			C414.9,191.8,414.9,153.6,391.4,130.1z M284.3,173.2l-6.6-6.6c0,0,0,0,0,0c0,0,0,0,0,0l-4.1-4.1c-0.4-0.4-0.4-1.2,0-1.6l18.7-18.7
			c0.2-0.2,0.5-0.3,0.8-0.3s0.6,0.1,0.8,0.3l10.6,10.6c0.4,0.4,0.4,1.2,0,1.6l-18.7,18.7C285.5,173.6,284.7,173.6,284.3,173.2z
			 M328,206.9c-1.5,0-3,0.6-4.1,1.7c-1.1,1.1-3.1,1.8-5.1,1.8c0,0-0.1,0-0.1,0c-1.3,0-3.7-0.3-5.5-2.1c-1.9-1.9-2.1-4.3-2.1-5.6
			c0-2,0.7-4,1.8-5.1c1.1-1.1,1.7-2.5,1.7-4.1s-0.6-3-1.7-4.1l-13.5-13.5l8.1-8.1l46.1,46.1l-8.1,8.1L332,208.5
			C330.9,207.5,329.5,206.9,328,206.9z M144.8,289.8l18.7-18.7c0.4-0.4,1.2-0.4,1.6,0l4.1,4.1c0,0,0,0,0,0c0,0,0,0,0,0l6.6,6.6
			c0.4,0.4,0.4,1.2,0,1.6l-1.3,1.3l0,0c0,0,0,0,0,0L157,302.1c-0.3,0.3-0.6,0.3-0.8,0.3c-0.2,0-0.5-0.1-0.8-0.3l-10.6-10.6
			C144.3,291,144.3,290.2,144.8,289.8z M209.7,380.7c-9.2,9.2-21.4,14.2-34.5,14.2s-25.3-5.1-34.5-14.2s-14.2-21.4-14.2-34.5
			c0-13.1,5.1-25.3,14.2-34.5l4.1-4.1l2.5,2.5c2.4,2.4,5.6,3.7,8.9,3.7c1.9,0,3.8-0.4,5.5-1.3l7.3,7.3c1.1,1.1,2.6,1.7,4.1,1.7
			s2.9-0.6,4.1-1.7c2.2-2.2,2.2-5.9,0-8.1l-6.8-6.8l8.1-8.1l13.5,13.5c1.1,1.1,2.5,1.7,4.1,1.7s3-0.6,4.1-1.7
			c1.1-1.1,3.1-1.8,5.1-1.8c1.3,0,3.7,0.2,5.6,2.1c1.9,1.9,2.1,4.3,2.1,5.6c0,2-0.7,4-1.8,5.1c-1.1,1.1-1.7,2.5-1.7,4.1
			s0.6,3,1.7,4.1l13.5,13.5l-8.1,8.1l-6.8-6.8c-2.2-2.2-5.9-2.2-8.1,0c-2.2,2.2-2.2,5.9,0,8.1l7.3,7.3c-2.3,4.7-1.6,10.6,2.4,14.5
			l2.5,2.5L209.7,380.7z M250.2,358.1l-18.7,18.7c-0.3,0.3-0.6,0.3-0.8,0.3c-0.2,0-0.5-0.1-0.8-0.3l-4.1-4.1c0,0,0,0,0,0l-6.6-6.6
			c-0.4-0.4-0.4-1.2,0-1.6l1.2-1.2c0,0,0,0,0,0c0,0,0,0,0,0l17.5-17.5c0.2-0.2,0.5-0.3,0.8-0.3s0.6,0.1,0.8,0.3l6.6,6.6h0l4.1,4.1
			C250.7,356.9,250.7,357.7,250.2,358.1z M379.3,229l-18.7,18.7c-0.3,0.3-0.6,0.3-0.8,0.3c-0.2,0-0.5-0.1-0.8-0.3l-10.6-10.6
			c-0.4-0.4-0.4-1.2,0-1.6l18.7-18.7c0.3-0.3,0.6-0.3,0.8-0.3c0.2,0,0.5,0.1,0.8,0.3v0l6.6,6.6c0,0,0,0,0,0l0,0l4.1,4.1
			C379.7,227.8,379.7,228.6,379.3,229z M376.8,208.6c-2.4-2.4-5.6-3.7-8.9-3.7c-2,0-3.9,0.5-5.6,1.3l-47.1-47.1
			c2.3-4.7,1.5-10.5-2.4-14.4l-2.5-2.5l4.1-4.1c9.2-9.2,21.4-14.2,34.5-14.2c13.1,0,25.3,5.1,34.5,14.2c9.2,9.2,14.2,21.4,14.2,34.5
			s-5.1,25.3-14.2,34.5l-4,4L376.8,208.6z"/>
		<path d="M248.4,201.6c1.5,0,2.9-0.6,4.1-1.7l0,0c2.2-2.2,2.2-5.9,0-8.1c-2.2-2.2-5.9-2.2-8.1,0c-2.2,2.2-2.2,5.9,0,8.1
			C245.5,201.1,247,201.6,248.4,201.6z"/>
		<path d="M193.4,328.1c-2.2-2.2-5.9-2.2-8.1,0c-2.2,2.2-2.2,5.9,0,8.1c1.1,1.1,2.6,1.7,4.1,1.7s2.9-0.6,4.1-1.7
			C195.6,333.9,195.6,330.3,193.4,328.1L193.4,328.1z"/>
		<path d="M251.6,223.4l-6.1,13.1l-14.4-0.2c-2,0-3.9,1-4.9,2.7c-1.1,1.7-1.2,3.8-0.3,5.6l6.4,12.9l-9.1,11.2
			c-1.3,1.5-1.6,3.6-1,5.5c0.7,1.9,2.3,3.3,4.2,3.7l14.1,3l3,14.1c0.4,2,1.8,3.6,3.7,4.2c0.6,0.2,1.3,0.3,1.9,0.3
			c1.3,0,2.6-0.4,3.6-1.3l11.2-9.1l12.9,6.4c1.8,0.9,3.9,0.8,5.6-0.3c1.7-1.1,2.7-2.9,2.7-4.9l-0.2-14.4l13.1-6.1
			c1.8-0.8,3.1-2.6,3.3-4.6c0.2-2-0.6-4-2.2-5.2l-11.4-8.8l3.4-14c0.5-1.9-0.1-4-1.5-5.4c-1.4-1.4-3.5-2-5.4-1.5l-14,3.4l-8.8-11.4
			c-1.2-1.6-3.2-2.4-5.2-2.2C254.2,220.3,252.5,221.6,251.6,223.4z M254.4,244.7l3.7-7.9l5.4,6.9c1.4,1.8,3.7,2.6,5.9,2.1l8.5-2.1
			l-2.1,8.5c-0.5,2.2,0.3,4.5,2.1,5.9l6.9,5.4l-7.9,3.7c-2.1,1-3.3,3-3.3,5.3l0.1,8.7l-7.8-3.9c-2-1-4.5-0.7-6.2,0.7l-6.8,5.5
			l-1.8-8.5c-0.5-2.2-2.2-3.9-4.4-4.4l-8.5-1.8l5.5-6.8c1.4-1.7,1.7-4.2,0.7-6.2l-3.9-7.8l8.7,0.1
			C251.3,248,253.4,246.7,254.4,244.7z"/>
	</g>
</g>
<g>
	<path class="st0" d="M416,467H59c-6.6,0-12-5.4-12-12V98c0-6.6,5.4-12,12-12h357c6.6,0,12,5.4,12,12v357
		C428,461.6,422.6,467,416,467z"/>
	<path class="st1" d="M47.3,229.8c0,0,44,106.7,81.3,103.6s78-60,112.7-58.9c34.7,1,129.3,71.1,158.7,82.3
		c29.3,11.2,29.3,11.2,29.3,11.2L428,105.3c0,0,2-14.7-12-18.3c-14-3.6-357,0-357,0s-11,3.6-12,18.3S47.3,229.8,47.3,229.8z"/>
	<path class="st2" d="M47.3,211.6c0,0,44,93.2,81.3,90.6c37.3-2.7,78-52.4,112.7-51.5s129.3,62.1,158.7,71.9
		c29.3,9.8,29.3,9.8,29.3,9.8L428,102.8c0,0,2-12.9-12-16c-14-3.1-357,0-357,0s-11,3.1-12,16S47.3,211.6,47.3,211.6z"/>
	<path class="st3" d="M416,467.5H59c-6.6,0-12-5.4-12-12v-357c0-6.6,5.4-12,12-12h357c6.6,0,12,5.4,12,12v357
		C428,462.1,422.6,467.5,416,467.5z"/>
	<path class="st4" d="M324.8,234.1c6,0,10.9,4.9,10.9,10.9c0,6-4.9,10.9-10.9,10.9c-34.8,0-64.6,26-69.3,60.5
		c-0.7,5.5-5.4,9.4-10.8,9.4c-0.5,0-1,0-1.5-0.1c-6-0.8-10.2-6.3-9.3-12.3C240,268.2,279.1,234.1,324.8,234.1z"/>
	<g>
		<path class="st5" d="M187.5,157.7c10.8,0.2,19.5,9,19.5,19.8c0,10.9-8.9,19.8-19.8,19.8h-52c-12.3,0-22.3-10-22.3-22.3
			c0-12.3,10-22.3,22.3-22.3c0.1,0,0.2,0,0.3,0c1.2-5.5,4.1-10.6,8.4-14.3c4.8-4.2,11-6.6,17.4-6.6
			C175.6,131.8,187.3,143.4,187.5,157.7z M203,177.5c0-8.7-7.1-15.7-15.7-15.7c-0.5,0-1.1,0-1.6,0.1c-0.6,0.1-1.2-0.1-1.6-0.6
			c-0.4-0.4-0.6-1-0.6-1.6l0-0.2c0-0.5,0.1-0.9,0.1-1.4c0-12.3-10-22.3-22.3-22.3c-5.4,0-10.6,2-14.7,5.5c-4,3.5-6.6,8.4-7.4,13.7
			c-0.1,1.1-1.1,1.8-2.2,1.7c-0.6-0.1-1.2-0.1-1.7-0.1c-10.1,0-18.3,8.2-18.3,18.3c0,10.1,8.2,18.3,18.3,18.3h52
			C195.9,193.2,203,186.2,203,177.5z"/>
		<path class="st5" d="M187.2,161.7c8.7,0,15.7,7.1,15.7,15.7c0,8.7-7.1,15.7-15.7,15.7h-52c-10.1,0-18.3-8.2-18.3-18.3
			c0-10.1,8.2-18.3,18.3-18.3c0.5,0,1.1,0,1.7,0.1c1.1,0.1,2-0.7,2.2-1.7c0.7-5.3,3.3-10.2,7.4-13.7c4.1-3.6,9.3-5.5,14.7-5.5
			c12.3,0,22.3,10,22.3,22.3c0,0.4,0,0.9-0.1,1.4l0,0.2c0,0.6,0.2,1.2,0.6,1.6c0.4,0.4,1,0.6,1.6,0.6
			C186.2,161.7,186.7,161.7,187.2,161.7z M163.2,143.2c0-1.1-0.9-2-2-2c-8.4,0-15.6,6.3-16.7,14.6c-0.1,1.1,0.6,2.1,1.7,2.3
			c0.1,0,0.2,0,0.3,0c1,0,1.8-0.7,2-1.7c0.9-6.3,6.3-11.1,12.7-11.1C162.3,145.2,163.2,144.3,163.2,143.2z"/>
		<path class="st5" d="M161.2,141.2c1.1,0,2,0.9,2,2c0,1.1-0.9,2-2,2c-6.4,0-11.9,4.8-12.7,11.1c-0.1,1-1,1.7-2,1.7
			c-0.1,0-0.2,0-0.3,0c-1.1-0.1-1.9-1.2-1.7-2.3C145.7,147.5,152.9,141.2,161.2,141.2z"/>
	</g>
	<g>
		<path class="st5" d="M394.2,245.7c10.8,0.2,19.5,9,19.5,19.8c0,10.9-8.9,19.8-19.8,19.8h-52c-12.3,0-22.3-10-22.3-22.3
			c0-12.3,10-22.3,22.3-22.3c0.1,0,0.2,0,0.3,0c1.2-5.5,4.1-10.6,8.4-14.3c4.8-4.2,11-6.6,17.4-6.6
			C382.3,219.8,394,231.4,394.2,245.7z M409.7,265.5c0-8.7-7.1-15.7-15.7-15.7c-0.5,0-1.1,0-1.6,0.1c-0.6,0.1-1.2-0.1-1.6-0.6
			c-0.4-0.4-0.6-1-0.6-1.6l0-0.2c0-0.5,0.1-0.9,0.1-1.4c0-12.3-10-22.3-22.3-22.3c-5.4,0-10.6,2-14.7,5.5c-4,3.5-6.6,8.4-7.4,13.7
			c-0.1,1.1-1.1,1.8-2.2,1.7c-0.6-0.1-1.2-0.1-1.7-0.1c-10.1,0-18.3,8.2-18.3,18.3c0,10.1,8.2,18.3,18.3,18.3h52
			C402.6,281.2,409.7,274.2,409.7,265.5z"/>
		<path class="st5" d="M393.9,249.7c8.7,0,15.7,7.1,15.7,15.7c0,8.7-7.1,15.7-15.7,15.7h-52c-10.1,0-18.3-8.2-18.3-18.3
			c0-10.1,8.2-18.3,18.3-18.3c0.5,0,1.1,0,1.7,0.1c1.1,0.1,2-0.7,2.2-1.7c0.7-5.3,3.3-10.2,7.4-13.7c4.1-3.6,9.3-5.5,14.7-5.5
			c12.3,0,22.3,10,22.3,22.3c0,0.4,0,0.9-0.1,1.4l0,0.2c0,0.6,0.2,1.2,0.6,1.6c0.4,0.4,1,0.6,1.6,0.6
			C392.8,249.7,393.4,249.7,393.9,249.7z M369.9,231.2c0-1.1-0.9-2-2-2c-8.4,0-15.6,6.3-16.7,14.6c-0.1,1.1,0.6,2.1,1.7,2.3
			c0.1,0,0.2,0,0.3,0c1,0,1.8-0.7,2-1.7c0.9-6.3,6.3-11.1,12.7-11.1C369,233.2,369.9,232.3,369.9,231.2z"/>
		<path class="st5" d="M367.9,229.2c1.1,0,2,0.9,2,2c0,1.1-0.9,2-2,2c-6.4,0-11.9,4.8-12.7,11.1c-0.1,1-1,1.7-2,1.7
			c-0.1,0-0.2,0-0.3,0c-1.1-0.1-1.9-1.2-1.7-2.3C352.3,235.5,359.5,229.2,367.9,229.2z"/>
	</g>
	<g>
		<g>
			<path class="st6" d="M199.4,384.2L145.2,330l-1.1,1.1c-2.7,2.7-7.1,2.7-9.7,0l-6.6-6.6l-8.1,8.1c-21.2,21.2-21.2,55.9,0,77.1
				c21.2,21.2,55.9,21.2,77.1,0l8-8l-6.6-6.6c-2.7-2.7-2.7-7.1,0-9.7L199.4,384.2z"/>
			<path class="st7" d="M145.2,330l16.2-16.2l1.3-1.3c2.7-2.7,2.7-7.1,0-9.7l-10.6-10.6c-2.7-2.7-7.1-2.7-9.7,0l-18.7,18.7
				c-2.7,2.7-2.7,7.1,0,9.7l4.1,4.1l6.6,6.6c2.7,2.7,7.1,2.7,9.7,0L145.2,330z"/>
			<path class="st8" d="M161.5,313.8L145.2,330l54.2,54.2l16.2-16.2l-17.6-17.6c4.5-4.5,5-13.6-0.3-18.8c-5.3-5.3-14.4-4.7-18.8-0.3
				L161.5,313.8z"/>
			<path class="st7" d="M215.7,368l-16.2,16.2l-1.2,1.2c-2.7,2.7-2.7,7.1,0,9.7l10.6,10.6c2.7,2.7,7.1,2.7,9.7,0l18.7-18.7
				c2.7-2.7,2.7-7.1,0-9.7l-10.6-10.6c-2.7-2.7-7.1-2.7-9.7,0L215.7,368z"/>
			<path class="st6" d="M198.1,350.4l17.6,17.6l1.2-1.2c2.7-2.7,7.1-2.7,9.7,0l6.6,6.6l100.7-100.7l-6.6-6.6c-2.7-2.7-2.7-7.1,0-9.7
				l1.2-1.2L311,237.6c-4.5,4.5-13.6,5-18.8-0.3c-5.3-5.3-4.7-14.4-0.3-18.8l-17.6-17.6l-1.3,1.3c-2.7,2.7-7.1,2.7-9.7,0l-6.6-6.6
				L156.2,296.1l6.6,6.6c2.7,2.7,2.7,7.1,0,9.7l-1.3,1.3l17.6,17.6c4.5-4.5,13.6-5,18.8,0.3C203.1,336.9,202.6,346,198.1,350.4z"/>
			<path class="st7" d="M263.2,202.3c2.7,2.7,7.1,2.7,9.7,0l17.6-17.6l1.1-1.1c2.7-2.7,2.7-7.1,0-9.7l-6.6-6.6l-4.1-4.1
				c-2.7-2.7-7.1-2.7-9.7,0l-18.7,18.7c-2.7,2.7-2.7,7.1,0,9.7L263.2,202.3z"/>
			<path class="st8" d="M274.3,200.9l17.6,17.6c-4.5,4.5-5,13.6,0.3,18.8c5.3,5.3,14.4,4.7,18.8,0.3l17.6,17.6l16.2-16.2l-54.2-54.2
				L274.3,200.9z"/>
			<path class="st7" d="M344.7,238.9l-16.2,16.2l-1.2,1.2c-2.7,2.7-2.7,7.1,0,9.7l6.6,6.6l4.1,4.1c2.7,2.7,7.1,2.7,9.7,0l18.7-18.7
				c2.7-2.7,2.7-7.1,0-9.7l-4.1-4.1l-6.6-6.6c-2.7-2.7-7.1-2.7-9.7,0L344.7,238.9z"/>
			<path class="st6" d="M290.5,184.7l54.2,54.2l1.2-1.2c2.7-2.7,7.1-2.7,9.7,0l6.6,6.6l8-8c21.2-21.2,21.2-55.9,0-77.1
				c-21.2-21.2-55.9-21.2-77.1,0l-8.1,8.1l6.6,6.6c2.7,2.7,2.7,7.1,0,9.7L290.5,184.7z"/>
			<path class="st8" d="M268.6,260.9l-4.3,17.6l14.3,11.1l-16.5,7.7l0.2,18.1l-16.2-8.1l-14,11.5l-3.8-17.7l-17.7-3.8l11.5-14
				L214,267l18.1,0.2l7.7-16.5l11.1,14.3L268.6,260.9z"/>
		</g>
		<path d="M374.4,155.1c-11.3-11.3-26.5-17.6-42.6-17.6s-31.3,6.2-42.6,17.6l-4.1,4.1h0c-4.9-4.9-12.9-4.9-17.9,0l-18.7,18.7
			c-4.9,4.9-4.9,12.9,0,17.9l-4.9,4.9c-2.2,2.2-2.2,5.9,0,8.1c1.1,1.1,2.6,1.7,4.1,1.7s2.9-0.6,4.1-1.7l4.9-4.9l2.5,2.5
			c2.5,2.5,5.7,3.7,8.9,3.7c2,0,4-0.5,5.8-1.4l10.6,10.6c-1.2,2.5-1.8,5.4-1.9,8.3c0,5.3,1.9,10.3,5.5,13.8
			c3.6,3.6,8.5,5.5,13.8,5.5c3,0,5.8-0.7,8.3-1.9l10.6,10.6c-2.3,4.7-1.6,10.6,2.4,14.6l2.5,2.5l-92.5,92.5l-2.5-2.5
			c-3.9-3.9-9.8-4.7-14.6-2.4l-10.6-10.6c1.2-2.5,1.8-5.4,1.9-8.3c0-5.3-1.9-10.2-5.5-13.8c-3.6-3.6-8.5-5.5-13.8-5.5
			c-3,0-5.8,0.7-8.3,1.9l-10.6-10.6c2.4-4.7,1.7-10.7-2.3-14.7l-2.5-2.5l54.9-54.9c2.2-2.2,2.2-5.9,0-8.1c-2.2-2.2-5.9-2.2-8.1,0
			L156.2,288c-4.9-4.9-12.9-4.9-17.9,0l-18.7,18.7c-4.9,4.9-4.9,12.9,0,17.9l-4.1,4.1C104.2,340,98,355.1,98,371.2
			s6.2,31.3,17.6,42.6s26.5,17.6,42.6,17.6s31.3-6.2,42.6-17.6l4-4c2.4,2.4,5.6,3.7,8.9,3.7c3.4,0,6.6-1.3,8.9-3.7l18.7-18.7
			c4.9-4.9,4.9-12.9,0-17.9l92.5-92.5c2.4,2.4,5.6,3.7,8.9,3.7c3.4,0,6.6-1.3,8.9-3.7l18.7-18.7c4.9-4.9,4.9-12.9,0-17.9l4-4
			C397.9,216.8,397.9,178.6,374.4,155.1z M267.3,198.2l-6.6-6.6c0,0,0,0,0,0c0,0,0,0,0,0l-4.1-4.1c-0.4-0.4-0.4-1.2,0-1.6l18.7-18.7
			c0.2-0.2,0.5-0.3,0.8-0.3s0.6,0.1,0.8,0.3l10.6,10.6c0.4,0.4,0.4,1.2,0,1.6l-18.7,18.7C268.5,198.6,267.7,198.6,267.3,198.2z
			 M311,231.9c-1.5,0-3,0.6-4.1,1.7c-1.1,1.1-3.1,1.8-5.1,1.8c0,0-0.1,0-0.1,0c-1.3,0-3.7-0.3-5.5-2.1c-1.9-1.9-2.1-4.3-2.1-5.6
			c0-2,0.7-4,1.8-5.1c1.1-1.1,1.7-2.5,1.7-4.1s-0.6-3-1.7-4.1l-13.5-13.5l8.1-8.1l46.1,46.1l-8.1,8.1L315,233.5
			C313.9,232.5,312.5,231.9,311,231.9z M127.8,314.8l18.7-18.7c0.4-0.4,1.2-0.4,1.6,0l4.1,4.1c0,0,0,0,0,0c0,0,0,0,0,0l6.6,6.6
			c0.4,0.4,0.4,1.2,0,1.6l-1.3,1.3l0,0c0,0,0,0,0,0L140,327.1c-0.3,0.3-0.6,0.3-0.8,0.3c-0.2,0-0.5-0.1-0.8-0.3l-10.6-10.6
			C127.3,316,127.3,315.2,127.8,314.8z M192.7,405.7c-9.2,9.2-21.4,14.2-34.5,14.2s-25.3-5.1-34.5-14.2s-14.2-21.4-14.2-34.5
			c0-13.1,5.1-25.3,14.2-34.5l4.1-4.1l2.5,2.5c2.4,2.4,5.6,3.7,8.9,3.7c1.9,0,3.8-0.4,5.5-1.3l7.3,7.3c1.1,1.1,2.6,1.7,4.1,1.7
			s2.9-0.6,4.1-1.7c2.2-2.2,2.2-5.9,0-8.1l-6.8-6.8l8.1-8.1l13.5,13.5c1.1,1.1,2.5,1.7,4.1,1.7s3-0.6,4.1-1.7
			c1.1-1.1,3.1-1.8,5.1-1.8c1.3,0,3.7,0.2,5.6,2.1c1.9,1.9,2.1,4.3,2.1,5.6c0,2-0.7,4-1.8,5.1c-1.1,1.1-1.7,2.5-1.7,4.1
			s0.6,3,1.7,4.1l13.5,13.5l-8.1,8.1l-6.8-6.8c-2.2-2.2-5.9-2.2-8.1,0c-2.2,2.2-2.2,5.9,0,8.1l7.3,7.3c-2.3,4.7-1.6,10.6,2.4,14.5
			l2.5,2.5L192.7,405.7z M233.2,383.1l-18.7,18.7c-0.3,0.3-0.6,0.3-0.8,0.3c-0.2,0-0.5-0.1-0.8-0.3l-4.1-4.1c0,0,0,0,0,0l-6.6-6.6
			c-0.4-0.4-0.4-1.2,0-1.6l1.2-1.2c0,0,0,0,0,0c0,0,0,0,0,0l17.5-17.5c0.2-0.2,0.5-0.3,0.8-0.3s0.6,0.1,0.8,0.3l6.6,6.6h0l4.1,4.1
			C233.7,381.9,233.7,382.7,233.2,383.1z M362.3,254l-18.7,18.7c-0.3,0.3-0.6,0.3-0.8,0.3c-0.2,0-0.5-0.1-0.8-0.3l-10.6-10.6
			c-0.4-0.4-0.4-1.2,0-1.6l18.7-18.7c0.3-0.3,0.6-0.3,0.8-0.3c0.2,0,0.5,0.1,0.8,0.3v0l6.6,6.6c0,0,0,0,0,0l0,0l4.1,4.1
			C362.7,252.8,362.7,253.6,362.3,254z M359.8,233.6c-2.4-2.4-5.6-3.7-8.9-3.7c-2,0-3.9,0.5-5.6,1.3l-47.1-47.1
			c2.3-4.7,1.5-10.5-2.4-14.4l-2.5-2.5l4.1-4.1c9.2-9.2,21.4-14.2,34.5-14.2c13.1,0,25.3,5.1,34.5,14.2c9.2,9.2,14.2,21.4,14.2,34.5
			s-5.1,25.3-14.2,34.5l-4,4L359.8,233.6z"/>
		<path d="M231.4,226.6c1.5,0,2.9-0.6,4.1-1.7l0,0c2.2-2.2,2.2-5.9,0-8.1c-2.2-2.2-5.9-2.2-8.1,0c-2.2,2.2-2.2,5.9,0,8.1
			C228.5,226.1,230,226.6,231.4,226.6z"/>
		<path d="M176.4,353.1c-2.2-2.2-5.9-2.2-8.1,0c-2.2,2.2-2.2,5.9,0,8.1c1.1,1.1,2.6,1.7,4.1,1.7s2.9-0.6,4.1-1.7
			C178.6,358.9,178.6,355.3,176.4,353.1L176.4,353.1z"/>
		<path d="M234.6,248.4l-6.1,13.1l-14.4-0.2c-2,0-3.9,1-4.9,2.7c-1.1,1.7-1.2,3.8-0.3,5.6l6.4,12.9l-9.1,11.2
			c-1.3,1.5-1.6,3.6-1,5.5c0.7,1.9,2.3,3.3,4.2,3.7l14.1,3l3,14.1c0.4,2,1.8,3.6,3.7,4.2c0.6,0.2,1.3,0.3,1.9,0.3
			c1.3,0,2.6-0.4,3.6-1.3l11.2-9.1l12.9,6.4c1.8,0.9,3.9,0.8,5.6-0.3c1.7-1.1,2.7-2.9,2.7-4.9l-0.2-14.4l13.1-6.1
			c1.8-0.8,3.1-2.6,3.3-4.6c0.2-2-0.6-4-2.2-5.2l-11.4-8.8l3.4-14c0.5-1.9-0.1-4-1.5-5.4c-1.4-1.4-3.5-2-5.4-1.5l-14,3.4l-8.8-11.4
			c-1.2-1.6-3.2-2.4-5.2-2.2C237.2,245.3,235.5,246.6,234.6,248.4z M237.4,269.7l3.7-7.9l5.4,6.9c1.4,1.8,3.7,2.6,5.9,2.1l8.5-2.1
			l-2.1,8.5c-0.5,2.2,0.3,4.5,2.1,5.9l6.9,5.4l-7.9,3.7c-2.1,1-3.3,3-3.3,5.3l0.1,8.7l-7.8-3.9c-2-1-4.5-0.7-6.2,0.7l-6.8,5.5
			l-1.8-8.5c-0.5-2.2-2.2-3.9-4.4-4.4l-8.5-1.8l5.5-6.8c1.4-1.7,1.7-4.2,0.7-6.2l-3.9-7.8l8.7,0.1
			C234.3,273,236.4,271.7,237.4,269.7z"/>
	</g>
	<g>
		<g>
			<path class="st6" d="M196.4,379.2L142.2,325l-1.1,1.1c-2.7,2.7-7.1,2.7-9.7,0l-6.6-6.6l-8.1,8.1c-21.2,21.2-21.2,55.9,0,77.1
				c21.2,21.2,55.9,21.2,77.1,0l8-8l-6.6-6.6c-2.7-2.7-2.7-7.1,0-9.7L196.4,379.2z"/>
			<path class="st7" d="M142.2,325l16.2-16.2l1.3-1.3c2.7-2.7,2.7-7.1,0-9.7l-10.6-10.6c-2.7-2.7-7.1-2.7-9.7,0l-18.7,18.7
				c-2.7,2.7-2.7,7.1,0,9.7l4.1,4.1l6.6,6.6c2.7,2.7,7.1,2.7,9.7,0L142.2,325z"/>
			<path class="st8" d="M158.5,308.8L142.2,325l54.2,54.2l16.2-16.2l-17.6-17.6c4.5-4.5,5-13.6-0.3-18.8c-5.3-5.3-14.4-4.7-18.8-0.3
				L158.5,308.8z"/>
			<path class="st7" d="M212.7,363l-16.2,16.2l-1.2,1.2c-2.7,2.7-2.7,7.1,0,9.7l10.6,10.6c2.7,2.7,7.1,2.7,9.7,0l18.7-18.7
				c2.7-2.7,2.7-7.1,0-9.7l-10.6-10.6c-2.7-2.7-7.1-2.7-9.7,0L212.7,363z"/>
			<path class="st6" d="M195.1,345.4l17.6,17.6l1.2-1.2c2.7-2.7,7.1-2.7,9.7,0l6.6,6.6l100.7-100.7l-6.6-6.6c-2.7-2.7-2.7-7.1,0-9.7
				l1.2-1.2L308,232.6c-4.5,4.5-13.6,5-18.8-0.3c-5.3-5.3-4.7-14.4-0.3-18.8l-17.6-17.6l-1.3,1.3c-2.7,2.7-7.1,2.7-9.7,0l-6.6-6.6
				L153.2,291.1l6.6,6.6c2.7,2.7,2.7,7.1,0,9.7l-1.3,1.3l17.6,17.6c4.5-4.5,13.6-5,18.8,0.3C200.1,331.9,199.6,341,195.1,345.4z"/>
			<path class="st7" d="M260.2,197.3c2.7,2.7,7.1,2.7,9.7,0l17.6-17.6l1.1-1.1c2.7-2.7,2.7-7.1,0-9.7l-6.6-6.6l-4.1-4.1
				c-2.7-2.7-7.1-2.7-9.7,0l-18.7,18.7c-2.7,2.7-2.7,7.1,0,9.7L260.2,197.3z"/>
			<path class="st8" d="M271.3,195.9l17.6,17.6c-4.5,4.5-5,13.6,0.3,18.8c5.3,5.3,14.4,4.7,18.8,0.3l17.6,17.6l16.2-16.2l-54.2-54.2
				L271.3,195.9z"/>
			<path class="st7" d="M341.7,233.9l-16.2,16.2l-1.2,1.2c-2.7,2.7-2.7,7.1,0,9.7l6.6,6.6l4.1,4.1c2.7,2.7,7.1,2.7,9.7,0l18.7-18.7
				c2.7-2.7,2.7-7.1,0-9.7l-4.1-4.1l-6.6-6.6c-2.7-2.7-7.1-2.7-9.7,0L341.7,233.9z"/>
			<path class="st6" d="M287.5,179.7l54.2,54.2l1.2-1.2c2.7-2.7,7.1-2.7,9.7,0l6.6,6.6l8-8c21.2-21.2,21.2-55.9,0-77.1
				c-21.2-21.2-55.9-21.2-77.1,0l-8.1,8.1l6.6,6.6c2.7,2.7,2.7,7.1,0,9.7L287.5,179.7z"/>
			<path class="st8" d="M265.6,255.9l-4.3,17.6l14.3,11.1l-16.5,7.7l0.2,18.1l-16.2-8.1l-14,11.5l-3.8-17.7l-17.7-3.8l11.5-14
				L211,262l18.1,0.2l7.7-16.5l11.1,14.3L265.6,255.9z"/>
		</g>
		<path d="M371.4,150.1c-11.3-11.3-26.5-17.6-42.6-17.6s-31.3,6.2-42.6,17.6l-4.1,4.1h0c-4.9-4.9-12.9-4.9-17.9,0l-18.7,18.7
			c-4.9,4.9-4.9,12.9,0,17.9l-4.9,4.9c-2.2,2.2-2.2,5.9,0,8.1c1.1,1.1,2.6,1.7,4.1,1.7s2.9-0.6,4.1-1.7l4.9-4.9l2.5,2.5
			c2.5,2.5,5.7,3.7,8.9,3.7c2,0,4-0.5,5.8-1.4l10.6,10.6c-1.2,2.5-1.8,5.4-1.9,8.3c0,5.3,1.9,10.3,5.5,13.8
			c3.6,3.6,8.5,5.5,13.8,5.5c3,0,5.8-0.7,8.3-1.9l10.6,10.6c-2.3,4.7-1.6,10.6,2.4,14.6l2.5,2.5l-92.5,92.5l-2.5-2.5
			c-3.9-3.9-9.8-4.7-14.6-2.4l-10.6-10.6c1.2-2.5,1.8-5.4,1.9-8.3c0-5.3-1.9-10.2-5.5-13.8c-3.6-3.6-8.5-5.5-13.8-5.5
			c-3,0-5.8,0.7-8.3,1.9l-10.6-10.6c2.4-4.7,1.7-10.7-2.3-14.7l-2.5-2.5l54.9-54.9c2.2-2.2,2.2-5.9,0-8.1c-2.2-2.2-5.9-2.2-8.1,0
			L153.2,283c-4.9-4.9-12.9-4.9-17.9,0l-18.7,18.7c-4.9,4.9-4.9,12.9,0,17.9l-4.1,4.1C101.2,335,95,350.1,95,366.2
			s6.2,31.3,17.6,42.6s26.5,17.6,42.6,17.6s31.3-6.2,42.6-17.6l4-4c2.4,2.4,5.6,3.7,8.9,3.7c3.4,0,6.6-1.3,8.9-3.7l18.7-18.7
			c4.9-4.9,4.9-12.9,0-17.9l92.5-92.5c2.4,2.4,5.6,3.7,8.9,3.7c3.4,0,6.6-1.3,8.9-3.7l18.7-18.7c4.9-4.9,4.9-12.9,0-17.9l4-4
			C394.9,211.8,394.9,173.6,371.4,150.1z M264.3,193.2l-6.6-6.6c0,0,0,0,0,0c0,0,0,0,0,0l-4.1-4.1c-0.4-0.4-0.4-1.2,0-1.6l18.7-18.7
			c0.2-0.2,0.5-0.3,0.8-0.3s0.6,0.1,0.8,0.3l10.6,10.6c0.4,0.4,0.4,1.2,0,1.6l-18.7,18.7C265.5,193.6,264.7,193.6,264.3,193.2z
			 M308,226.9c-1.5,0-3,0.6-4.1,1.7c-1.1,1.1-3.1,1.8-5.1,1.8c0,0-0.1,0-0.1,0c-1.3,0-3.7-0.3-5.5-2.1c-1.9-1.9-2.1-4.3-2.1-5.6
			c0-2,0.7-4,1.8-5.1c1.1-1.1,1.7-2.5,1.7-4.1s-0.6-3-1.7-4.1l-13.5-13.5l8.1-8.1l46.1,46.1l-8.1,8.1L312,228.5
			C310.9,227.5,309.5,226.9,308,226.9z M124.8,309.8l18.7-18.7c0.4-0.4,1.2-0.4,1.6,0l4.1,4.1c0,0,0,0,0,0c0,0,0,0,0,0l6.6,6.6
			c0.4,0.4,0.4,1.2,0,1.6l-1.3,1.3l0,0c0,0,0,0,0,0L137,322.1c-0.3,0.3-0.6,0.3-0.8,0.3c-0.2,0-0.5-0.1-0.8-0.3l-10.6-10.6
			C124.3,311,124.3,310.2,124.8,309.8z M189.7,400.7c-9.2,9.2-21.4,14.2-34.5,14.2s-25.3-5.1-34.5-14.2s-14.2-21.4-14.2-34.5
			c0-13.1,5.1-25.3,14.2-34.5l4.1-4.1l2.5,2.5c2.4,2.4,5.6,3.7,8.9,3.7c1.9,0,3.8-0.4,5.5-1.3l7.3,7.3c1.1,1.1,2.6,1.7,4.1,1.7
			s2.9-0.6,4.1-1.7c2.2-2.2,2.2-5.9,0-8.1l-6.8-6.8l8.1-8.1l13.5,13.5c1.1,1.1,2.5,1.7,4.1,1.7s3-0.6,4.1-1.7
			c1.1-1.1,3.1-1.8,5.1-1.8c1.3,0,3.7,0.2,5.6,2.1c1.9,1.9,2.1,4.3,2.1,5.6c0,2-0.7,4-1.8,5.1c-1.1,1.1-1.7,2.5-1.7,4.1
			s0.6,3,1.7,4.1l13.5,13.5l-8.1,8.1l-6.8-6.8c-2.2-2.2-5.9-2.2-8.1,0c-2.2,2.2-2.2,5.9,0,8.1l7.3,7.3c-2.3,4.7-1.6,10.6,2.4,14.5
			l2.5,2.5L189.7,400.7z M230.2,378.1l-18.7,18.7c-0.3,0.3-0.6,0.3-0.8,0.3c-0.2,0-0.5-0.1-0.8-0.3l-4.1-4.1c0,0,0,0,0,0l-6.6-6.6
			c-0.4-0.4-0.4-1.2,0-1.6l1.2-1.2c0,0,0,0,0,0c0,0,0,0,0,0l17.5-17.5c0.2-0.2,0.5-0.3,0.8-0.3s0.6,0.1,0.8,0.3l6.6,6.6h0l4.1,4.1
			C230.7,376.9,230.7,377.7,230.2,378.1z M359.3,249l-18.7,18.7c-0.3,0.3-0.6,0.3-0.8,0.3c-0.2,0-0.5-0.1-0.8-0.3l-10.6-10.6
			c-0.4-0.4-0.4-1.2,0-1.6l18.7-18.7c0.3-0.3,0.6-0.3,0.8-0.3c0.2,0,0.5,0.1,0.8,0.3v0l6.6,6.6c0,0,0,0,0,0l0,0l4.1,4.1
			C359.7,247.8,359.7,248.6,359.3,249z M356.8,228.6c-2.4-2.4-5.6-3.7-8.9-3.7c-2,0-3.9,0.5-5.6,1.3l-47.1-47.1
			c2.3-4.7,1.5-10.5-2.4-14.4l-2.5-2.5l4.1-4.1c9.2-9.2,21.4-14.2,34.5-14.2c13.1,0,25.3,5.1,34.5,14.2c9.2,9.2,14.2,21.4,14.2,34.5
			s-5.1,25.3-14.2,34.5l-4,4L356.8,228.6z"/>
		<path d="M228.4,221.6c1.5,0,2.9-0.6,4.1-1.7l0,0c2.2-2.2,2.2-5.9,0-8.1c-2.2-2.2-5.9-2.2-8.1,0c-2.2,2.2-2.2,5.9,0,8.1
			C225.5,221.1,227,221.6,228.4,221.6z"/>
		<path d="M173.4,348.1c-2.2-2.2-5.9-2.2-8.1,0c-2.2,2.2-2.2,5.9,0,8.1c1.1,1.1,2.6,1.7,4.1,1.7s2.9-0.6,4.1-1.7
			C175.6,353.9,175.6,350.3,173.4,348.1L173.4,348.1z"/>
		<path d="M231.6,243.4l-6.1,13.1l-14.4-0.2c-2,0-3.9,1-4.9,2.7c-1.1,1.7-1.2,3.8-0.3,5.6l6.4,12.9l-9.1,11.2
			c-1.3,1.5-1.6,3.6-1,5.5c0.7,1.9,2.3,3.3,4.2,3.7l14.1,3l3,14.1c0.4,2,1.8,3.6,3.7,4.2c0.6,0.2,1.3,0.3,1.9,0.3
			c1.3,0,2.6-0.4,3.6-1.3l11.2-9.1l12.9,6.4c1.8,0.9,3.9,0.8,5.6-0.3c1.7-1.1,2.7-2.9,2.7-4.9l-0.2-14.4l13.1-6.1
			c1.8-0.8,3.1-2.6,3.3-4.6c0.2-2-0.6-4-2.2-5.2l-11.4-8.8l3.4-14c0.5-1.9-0.1-4-1.5-5.4c-1.4-1.4-3.5-2-5.4-1.5l-14,3.4l-8.8-11.4
			c-1.2-1.6-3.2-2.4-5.2-2.2C234.2,240.3,232.5,241.6,231.6,243.4z M234.4,264.7l3.7-7.9l5.4,6.9c1.4,1.8,3.7,2.6,5.9,2.1l8.5-2.1
			l-2.1,8.5c-0.5,2.2,0.3,4.5,2.1,5.9l6.9,5.4l-7.9,3.7c-2.1,1-3.3,3-3.3,5.3l0.1,8.7l-7.8-3.9c-2-1-4.5-0.7-6.2,0.7l-6.8,5.5
			l-1.8-8.5c-0.5-2.2-2.2-3.9-4.4-4.4l-8.5-1.8l5.5-6.8c1.4-1.7,1.7-4.2,0.7-6.2l-3.9-7.8l8.7,0.1
			C231.3,268,233.4,266.7,234.4,264.7z"/>
	</g>
</g>
</svg>
