<?xml version="1.0" encoding="utf-8"?>
<!-- Generator: Adobe Illustrator 22.0.0, SVG Export Plug-In . SVG Version: 6.00 Build 0)  -->
<svg version="1.1" id="Layer_1" xmlns="http://www.w3.org/2000/svg" xmlns:xlink="http://www.w3.org/1999/xlink" x="0px" y="0px"
	 viewBox="0 0 496 496" style="enable-background:new 0 0 496 496;" xml:space="preserve">
<style type="text/css">
	.st0{fill:#FF4F19;}
	.st1{fill:#E3001E;}
	.st2{fill:#E6BE8A;}
	.st3{fill:#FFEBB7;}
	.st4{fill:#868491;}
	.st5{fill:#B4B6BC;}
	.st6{fill:#5D647F;}
</style>
<g>
	<path class="st0" d="M472,116.1H24c-13.2,0-24,10.8-24,24v264c0,13.2,10.8,24,24,24h448c13.2,0,24-10.8,24-24v-264
		C496,126.8,485.2,116.1,472,116.1z"/>
</g>
<g>
	<rect x="224" y="388.1" class="st1" width="48" height="40"/>
</g>
<g>
	<path class="st2" d="M464.2,364.1v24c0,4.4-3.6,8-8,8h-416c-4.4,0-8-3.6-8-8v-24l47.8-24l192,8l160-8L464.2,364.1z"/>
</g>
<g>
	<g>
		<path class="st3" d="M248.2,380.1c64.7-30.4,139-32.1,204.8-5c5.3,2.2,11.2-1.5,11.2-7.3V97.3c0-3.2-1.9-6.1-4.8-7.4
			c-67.3-30-144.4-29.3-211.2,2.2V380.1z"/>
	</g>
	<g>
		<g>
			<path class="st4" d="M280.2,327.8c-3.4,0-6.6-2.2-7.6-5.6c-1.3-4.2,1-8.7,5.2-10c8.1-2.5,16.4-4.7,24.8-6.5
				c4.3-0.9,8.6,1.9,9.5,6.2c0.9,4.3-1.9,8.6-6.2,9.5c-7.8,1.6-15.6,3.7-23.2,6.1C281.8,327.7,281,327.8,280.2,327.8z"/>
		</g>
	</g>
	<g>
		<g>
			<path class="st4" d="M432.2,327.8c-0.8,0-1.6-0.1-2.4-0.4c-30.2-9.5-61.5-13-93-10.5c-4.5,0.3-8.3-2.9-8.6-7.3
				c-0.3-4.4,2.9-8.3,7.3-8.6c33.6-2.6,66.9,1.1,99,11.2c4.2,1.3,6.6,5.8,5.2,10C438.8,325.6,435.6,327.8,432.2,327.8z"/>
		</g>
	</g>
	<g>
		<g>
			<path class="st4" d="M432.2,295.7c-0.8,0-1.6-0.1-2.4-0.4c-48.2-15.1-99-15.1-147.2,0c-4.2,1.3-8.7-1-10-5.2
				c-1.3-4.2,1-8.7,5.2-10c51.3-16.1,105.5-16.1,156.8,0c4.2,1.3,6.6,5.8,5.2,10C438.8,293.5,435.6,295.7,432.2,295.7z"/>
		</g>
	</g>
	<g>
		<g>
			<path class="st4" d="M280.2,263.8c-3.4,0-6.6-2.2-7.6-5.6c-1.3-4.2,1-8.7,5.2-10c29.4-9.2,60-13.2,90.8-11.7
				c4.4,0.2,7.8,4,7.6,8.4c-0.2,4.4-3.9,7.8-8.4,7.6c-28.9-1.4-57.6,2.3-85.2,11C281.8,263.7,281,263.8,280.2,263.8z"/>
		</g>
	</g>
	<g>
		<g>
			<path class="st4" d="M432.2,263.8c-0.8,0-1.6-0.1-2.4-0.4c-10.1-3.2-20.5-5.7-31-7.6c-4.4-0.8-7.3-4.9-6.5-9.3
				c0.8-4.3,4.9-7.3,9.3-6.5c11.1,2,22.2,4.7,33,8.1c4.2,1.3,6.6,5.8,5.2,10C438.8,261.6,435.6,263.8,432.2,263.8z"/>
		</g>
	</g>
	<g>
		<g>
			<path class="st4" d="M432.2,231.7c-0.8,0-1.6-0.1-2.4-0.4c-48.2-15.1-99-15.1-147.2,0c-4.2,1.3-8.7-1-10-5.2
				c-1.3-4.2,1-8.7,5.2-10c51.3-16.1,105.5-16.1,156.8,0c4.2,1.3,6.6,5.8,5.2,10C438.8,229.5,435.6,231.7,432.2,231.7z"/>
		</g>
	</g>
	<g>
		<g>
			<path class="st4" d="M280.2,199.7c-3.4,0-6.6-2.2-7.6-5.6c-1.3-4.2,1-8.7,5.2-10c16.1-5.1,32.8-8.6,49.5-10.4
				c4.5-0.5,8.4,2.7,8.8,7.1c0.5,4.4-2.7,8.3-7.1,8.8c-15.7,1.8-31.4,5-46.5,9.8C281.8,199.6,281,199.7,280.2,199.7z"/>
		</g>
	</g>
	<g>
		<g>
			<path class="st4" d="M432.2,199.7c-0.8,0-1.6-0.1-2.4-0.4c-22.6-7.1-46-10.9-69.7-11.3c-4.4-0.1-7.9-3.7-7.9-8.1
				c0.1-4.4,3.9-8.1,8.1-7.9c25.2,0.4,50.2,4.4,74.3,12c4.2,1.3,6.6,5.8,5.2,10C438.8,197.5,435.6,199.7,432.2,199.7z"/>
		</g>
	</g>
	<g>
		<g>
			<path class="st4" d="M280.2,167.8c-3.4,0-6.6-2.2-7.6-5.6c-1.3-4.2,1-8.7,5.2-10c34.9-10.9,70.9-14.5,107.3-10.4
				c4.4,0.5,7.6,4.4,7.1,8.8c-0.5,4.4-4.4,7.6-8.8,7.1c-34.1-3.8-68-0.5-100.7,9.8C281.8,167.7,281,167.8,280.2,167.8z"/>
		</g>
	</g>
	<g>
		<g>
			<path class="st4" d="M432.2,167.8c-0.8,0-1.6-0.1-2.4-0.4c-5.1-1.6-10.3-3-15.5-4.3c-4.3-1-6.9-5.4-5.9-9.7s5.3-6.9,9.7-5.9
				c5.5,1.4,11.1,2.9,16.5,4.6c4.2,1.3,6.6,5.8,5.2,10C438.8,165.6,435.6,167.8,432.2,167.8z"/>
		</g>
	</g>
</g>
<path class="st4" d="M248.2,379.8L248.2,379.8c-0.8,0-1.4-0.6-1.4-1.4V92.9c0-0.8,0.6-1.4,1.4-1.4l0,0c0.8,0,1.4,0.6,1.4,1.4v285.4
	C249.6,379.2,248.9,379.8,248.2,379.8z"/>
<g>
	<g>
		<path class="st3" d="M43.4,375.1c65.7-27.1,140.1-25.5,204.8,5v-288C181.4,60.6,104.3,59.9,37,89.9c-2.9,1.3-4.8,4.2-4.8,7.4
			v270.5C32.2,373.6,38.1,377.3,43.4,375.1z"/>
	</g>
	<g>
		<g>
			<path class="st5" d="M64.2,327.8c-3.4,0-6.6-2.2-7.6-5.6c-1.3-4.2,1-8.7,5.2-10c8.1-2.5,16.4-4.7,24.8-6.5
				c4.3-0.9,8.6,1.9,9.5,6.2c0.9,4.3-1.9,8.6-6.2,9.5c-7.8,1.6-15.6,3.7-23.2,6.1C65.8,327.7,65,327.8,64.2,327.8z"/>
		</g>
	</g>
	<g>
		<g>
			<path class="st5" d="M216.2,327.8c-0.8,0-1.6-0.1-2.4-0.4c-30.2-9.5-61.5-13-93-10.5c-4.5,0.3-8.3-2.9-8.6-7.3
				c-0.3-4.4,2.9-8.3,7.3-8.6c33.6-2.6,66.9,1.1,99,11.2c4.2,1.3,6.6,5.8,5.2,10C222.8,325.6,219.6,327.8,216.2,327.8z"/>
		</g>
	</g>
	<g>
		<g>
			<path class="st5" d="M216.2,295.7c-0.8,0-1.6-0.1-2.4-0.4c-48.2-15.1-99-15.1-147.2,0c-4.3,1.3-8.7-1-10-5.2
				c-1.3-4.2,1-8.7,5.2-10c51.3-16.1,105.5-16.1,156.8,0c4.2,1.3,6.6,5.8,5.2,10C222.8,293.5,219.6,295.7,216.2,295.7z"/>
		</g>
	</g>
	<g>
		<g>
			<path class="st5" d="M64.2,263.8c-3.4,0-6.6-2.2-7.6-5.6c-1.3-4.2,1-8.7,5.2-10c29.4-9.2,60-13.2,90.8-11.7
				c4.4,0.2,7.8,4,7.6,8.4c-0.2,4.4-3.9,7.8-8.4,7.6c-28.9-1.4-57.6,2.3-85.2,11C65.8,263.7,65,263.8,64.2,263.8z"/>
		</g>
	</g>
	<g>
		<g>
			<path class="st5" d="M216.2,263.8c-0.8,0-1.6-0.1-2.4-0.4c-10.1-3.2-20.5-5.7-31-7.6c-4.4-0.8-7.3-4.9-6.5-9.3
				c0.8-4.3,4.9-7.3,9.3-6.5c11.1,2,22.2,4.7,33,8.1c4.2,1.3,6.6,5.8,5.2,10C222.8,261.6,219.6,263.8,216.2,263.8z"/>
		</g>
	</g>
	<g>
		<g>
			<path class="st5" d="M64.2,231.7c-3.4,0-6.6-2.2-7.6-5.6c-1.3-4.2,1-8.7,5.2-10c45.5-14.3,94-15.9,140.3-4.6
				c4.3,1,6.9,5.4,5.9,9.7c-1,4.3-5.4,6.9-9.7,5.9c-43.5-10.6-89-9.1-131.7,4.3C65.8,231.6,65,231.7,64.2,231.7z"/>
		</g>
	</g>
	<g>
		<g>
			<path class="st5" d="M64.2,199.7c-3.4,0-6.6-2.2-7.6-5.6c-1.3-4.2,1-8.7,5.2-10c16.1-5.1,32.8-8.6,49.5-10.4
				c4.4-0.5,8.4,2.7,8.8,7.1c0.5,4.4-2.7,8.3-7.1,8.8c-15.7,1.8-31.4,5-46.5,9.8C65.8,199.6,65,199.7,64.2,199.7z"/>
		</g>
	</g>
	<g>
		<g>
			<path class="st5" d="M200.2,195.3c-0.6,0-1.3-0.1-1.9-0.2c-17.7-4.3-36-6.7-54.2-6.9c-4.4-0.1-7.9-3.7-7.9-8.1
				c0.1-4.4,3.5-8.1,8.1-7.9c19.4,0.3,38.9,2.8,57.8,7.4c4.3,1,6.9,5.4,5.9,9.7C207.1,192.8,203.8,195.3,200.2,195.3z"/>
		</g>
	</g>
	<g>
		<g>
			<path class="st5" d="M64.2,167.8c-3.4,0-6.6-2.2-7.6-5.6c-1.3-4.2,1-8.7,5.2-10c34.9-10.9,70.9-14.5,107.3-10.4
				c4.4,0.5,7.6,4.4,7.1,8.8c-0.5,4.4-4.4,7.6-8.8,7.1c-34.1-3.8-68-0.5-100.7,9.8C65.8,167.7,65,167.8,64.2,167.8z"/>
		</g>
	</g>
	<g>
		<g>
			<path class="st5" d="M64.2,135.7c-3.4,0-6.6-2.2-7.6-5.6c-1.3-4.2,1-8.7,5.2-10c5.5-1.7,11-3.3,16.5-4.6c4.3-1.1,8.6,1.6,9.7,5.9
				c1,4.3-1.6,8.6-5.9,9.7c-5.1,1.2-10.3,2.7-15.5,4.3C65.8,135.6,65,135.7,64.2,135.7z"/>
		</g>
	</g>
	<g>
		<g>
			<path class="st5" d="M200.2,131.3c-0.6,0-1.3-0.1-1.9-0.2c-28-6.8-56.6-8.6-85.2-5.5c-4.4,0.5-8.4-2.7-8.8-7.1
				c-0.5-4.4,2.7-8.3,7.1-8.8c30.4-3.4,61-1.4,90.8,5.8c4.3,1,6.9,5.4,5.9,9.7C207.1,128.8,203.8,131.3,200.2,131.3z"/>
		</g>
	</g>
	<g>
		<path class="st6" d="M201.2,216.1c0,3.2,3.6,5.1,6.2,3.3l17.8-11.9l17.8,11.9c2.7,1.8,6.2-0.1,6.2-3.3V92.7c0-3.2-1.8-6.1-4.7-7.4
			c-12.5-5.5-25.3-10-38.3-13.4c-2.5-0.7-5,1.3-5,3.9L201.2,216.1z"/>
	</g>
</g>
<g>
	<g>
		<path class="st4" d="M275.6,123.7c0.9,3.1,1.3,4.6,2.2,7.7c2.2-0.6,3.3-1,5.5-1.6c0.2,0.7,0.3,1,0.4,1.6c-3,0.8-4.5,1.2-7.4,2.1
			c-1.1-3.7-1.7-5.6-2.8-9.4C274.4,124.1,274.8,124,275.6,123.7z"/>
		<path class="st4" d="M285.1,131.2c-1-3.8-1.5-5.7-2.5-9.5c0.8-0.2,1.2-0.3,2.1-0.5c1,3.8,1.4,5.7,2.4,9.5
			C286.3,130.9,285.9,131,285.1,131.2z"/>
		<path class="st4" d="M294.3,121.3c-0.5-0.5-1.6-0.7-2.8-0.5c-1.5,0.4-2.1,1.1-2,1.8c0.2,0.8,1.4,0.8,2.7,0.6
			c2.3-0.3,4.5-0.2,5,2.1c0.4,2.1-1.5,3.5-3.8,4c-2.2,0.5-4,0.3-5.2-1.2c0.6-0.5,0.9-0.7,1.5-1.2c0.7,0.9,2.1,1.1,3.4,0.8
			c1.3-0.3,2.4-1,2.2-2c-0.2-0.9-1.3-1-2.8-0.8c-2.2,0.3-4.4,0.3-4.9-1.8c-0.5-2,1.6-3.3,3.6-3.8c1.7-0.4,3.6-0.4,4.7,0.9
			C295.2,120.6,294.9,120.9,294.3,121.3z"/>
		<path class="st4" d="M300.6,119.3c-1.4,0.3-2.1,0.4-3.5,0.7c-0.1-0.7-0.2-1-0.3-1.6c3.2-0.7,5.9-1.2,9.1-1.8
			c0.1,0.7,0.2,1,0.3,1.7c-1.4,0.2-2.1,0.4-3.5,0.6c0.6,3.2,0.9,4.8,1.5,8c-0.8,0.2-1.2,0.2-2,0.4
			C301.5,124,301.2,122.5,300.6,119.3z"/>
		<path class="st4" d="M321.9,119.2c0.3,2.5-1.2,5.2-4.9,5.7c-3.8,0.5-5.9-1.6-6.3-4.1c-0.4-2.5,1.1-5.4,4.9-6
			C319.4,114.3,321.6,116.7,321.9,119.2z M312.7,120.5c0.3,1.6,1.5,3.1,4,2.8c2.5-0.4,3.3-2.2,3.1-3.8c-0.2-1.6-1.4-3.3-4-3
			C313.2,116.9,312.4,118.9,312.7,120.5z"/>
		<path class="st4" d="M323.9,123.8c-0.4-3.9-0.6-5.8-1.1-9.7c3.2-0.4,4.8-0.5,8-0.8c0.1,0.7,0.1,1.1,0.1,1.8
			c-2.4,0.2-3.5,0.3-5.9,0.6c0.1,1.1,0.2,1.6,0.3,2.7c2.2-0.2,3.3-0.3,5.5-0.5c0.1,0.7,0.1,1,0.1,1.7c-2.2,0.2-3.3,0.3-5.5,0.5
			c0.1,1.4,0.2,2.2,0.4,3.6C325.2,123.7,324.7,123.7,323.9,123.8z"/>
		<path class="st4" d="M345.7,121c-1.1,1-2.5,1.5-4.1,1.6c-4,0.2-5.9-2.2-6-4.7c-0.2-2.5,1.6-5.3,5.6-5.5c1.5-0.1,3,0.4,4.2,1.3
			c-0.5,0.5-0.8,0.7-1.4,1.2c-0.7-0.6-1.7-0.9-2.7-0.8c-2.7,0.1-3.8,2-3.6,3.6c0.1,1.6,1.2,3.2,3.9,3.1c0.9,0,2-0.4,2.7-1.1
			C344.8,120.3,345.1,120.5,345.7,121z"/>
		<path class="st4" d="M357.6,117.3c-0.1,2.5-1.8,5-5.6,5c-3.8,0-5.6-2.4-5.7-4.9c-0.1-2.6,1.8-5.2,5.6-5.3
			C355.8,112.1,357.6,114.7,357.6,117.3z M348.3,117.4c0.1,1.6,1.1,3.3,3.6,3.3c2.6,0,3.5-1.7,3.6-3.3c0-1.6-1-3.5-3.6-3.5
			C349.3,113.8,348.2,115.7,348.3,117.4z"/>
		<path class="st4" d="M369.9,117.7c-0.2,2.5-2,4.9-5.8,4.8c-3.8-0.1-5.5-2.6-5.4-5.2c0.1-2.6,2-5.1,5.9-5
			C368.3,112.5,370.1,115.2,369.9,117.7z M360.6,117.4c0,1.6,0.9,3.3,3.5,3.4c2.6,0.1,3.6-1.6,3.7-3.2c0.1-1.6-0.8-3.5-3.4-3.6
			C361.8,113.9,360.6,115.7,360.6,117.4z"/>
		<path class="st4" d="M373.8,113c-0.2,3.2-0.4,4.8-0.6,8c2.2,0.2,3.3,0.2,5.6,0.5c-0.1,0.7-0.1,1-0.2,1.7c-3-0.3-4.5-0.4-7.6-0.6
			c0.3-3.9,0.4-5.8,0.7-9.7C372.6,112.9,373,113,373.8,113z"/>
		<path class="st4" d="M388.6,121.4c-1.2-0.2-1.8-0.2-3.1-0.4c-0.1,1.1-0.2,1.7-0.3,2.9c-0.8-0.1-1.2-0.1-2-0.2
			c0.4-3.9,0.7-5.8,1.1-9.7c1.7,0.2,3.5,0.4,5.2,0.6C394.9,115.3,393.9,122.1,388.6,121.4z M385.7,119.4c1.2,0.1,1.8,0.2,3.1,0.4
			c2.6,0.3,3.1-3.1,0.5-3.4c-1.2-0.2-1.9-0.2-3.1-0.4C386,117.3,385.9,118,385.7,119.4z"/>
		<path class="st4" d="M401.4,126.3c-3.2-0.6-4.8-0.8-8-1.3c0.5-3.2,1-6.4,1.5-9.7c3.3,0.5,5,0.8,8.3,1.4c-0.1,0.7-0.2,1.1-0.3,1.8
			c-2.5-0.4-3.7-0.6-6.2-1c-0.1,0.9-0.2,1.3-0.4,2.2c2.4,0.4,3.5,0.6,5.9,1c-0.1,0.7-0.2,1-0.3,1.7c-2.3-0.4-3.5-0.6-5.8-1
			c-0.1,0.9-0.2,1.3-0.4,2.2c2.4,0.4,3.6,0.6,6,1C401.6,125.2,401.6,125.6,401.4,126.3z"/>
		<path class="st4" d="M414.5,124c-0.6,2.5-2.8,4.5-6.6,3.7c-3.7-0.8-5-3.5-4.5-6c0.5-2.5,2.8-4.7,6.6-4
			C413.8,118.6,415.1,121.5,414.5,124z M405.4,122.2c-0.3,1.6,0.4,3.4,2.9,4c2.5,0.5,3.8-1,4.2-2.5c0.4-1.6-0.2-3.6-2.8-4.2
			C407.1,118.9,405.7,120.5,405.4,122.2z"/>
		<path class="st4" d="M420.5,127.5c-1.2-0.3-1.8-0.5-3-0.7c-0.3,1.1-0.4,1.7-0.7,2.8c-0.8-0.2-1.2-0.3-2-0.5
			c0.9-3.8,1.4-5.7,2.3-9.5c1.7,0.4,3.4,0.8,5.1,1.2C427.5,122.1,425.7,128.8,420.5,127.5z M417.9,125.1c1.2,0.3,1.8,0.4,3,0.7
			c2.6,0.7,3.5-2.7,0.9-3.3c-1.2-0.3-1.8-0.5-3.1-0.8C418.4,123.1,418.2,123.8,417.9,125.1z"/>
		<path class="st4" d="M429.6,122.8c-0.9,3.1-1.3,4.6-2.2,7.7c2.2,0.6,3.2,0.9,5.4,1.6c-0.2,0.7-0.3,1-0.5,1.6
			c-2.9-0.9-4.4-1.3-7.3-2.1c1.1-3.8,1.6-5.6,2.6-9.4C428.4,122.5,428.8,122.6,429.6,122.8z"/>
		<path class="st4" d="M441.3,136.7c-3.1-1.1-4.6-1.6-7.7-2.5c1-3.1,2-6.2,3-9.3c3.2,1,4.8,1.5,8,2.6c-0.2,0.7-0.4,1-0.6,1.7
			c-2.4-0.8-3.6-1.2-6-2c-0.3,0.9-0.4,1.3-0.7,2.1c2.3,0.7,3.4,1.1,5.7,1.9c-0.2,0.6-0.3,1-0.6,1.6c-2.3-0.8-3.4-1.2-5.7-1.9
			c-0.3,0.8-0.4,1.3-0.7,2.1c2.3,0.7,3.5,1.1,5.8,1.9C441.7,135.7,441.6,136,441.3,136.7z"/>
	</g>
</g>
</svg>
