<?xml version="1.0" encoding="utf-8"?>
<!-- Generator: Adobe Illustrator 22.0.0, SVG Export Plug-In . SVG Version: 6.00 Build 0)  -->
<svg version="1.1" id="Layer_1" xmlns="http://www.w3.org/2000/svg" xmlns:xlink="http://www.w3.org/1999/xlink" x="0px" y="0px"
	 viewBox="0 0 512 512" style="enable-background:new 0 0 512 512;" xml:space="preserve">
<style type="text/css">
	.st0{fill:#FFB200;}
	.st1{fill:#FFC928;}
	.st2{fill:#784031;}
	.st3{fill:#005D8A;}
	.st4{fill:#592F26;}
	.st5{fill:#66352B;}
	.st6{fill:#E4EAF6;}
	.st7{fill:#5B5D6E;}
	.st8{fill:#181819;}
	.st9{fill:#211A1A;}
	.st10{fill:#191313;}
	.st11{fill:#020202;}
	.st12{fill:#E6AF78;}
	.st13{fill:#D29B6E;}
	.st14{fill:#8C8C8C;}
	.st15{fill:#9E9E9E;}
	.st16{fill:#785550;}
	.st17{fill:#F0C087;}
	.st18{fill:#EFF2FA;}
	.st19{fill:#515262;}
	.st20{fill:#694B4B;}
	.st21{fill:#5A4146;}
</style>
<path class="st0" d="M121.8,121.9c-84.1,4.7-74.6,111.5-74.2,189.4c0,3,1.6,5.7,4.2,7.3c10,6,37.5,20.2,75.8,20.2l22.9-160"/>
<path class="st1" d="M127.7,121.7c-51.4,0-55,62.1-55,62.1c29.6-5,47.8,7.5,77.8-5l-22.9,160c38.3,0,65.8-14.1,75.8-20.2
	c2.6-1.6,4.2-4.3,4.2-7.3C208.1,231.6,218.1,121.7,127.7,121.7z"/>
<g>
	<polygon class="st2" points="387.1,301.1 387.1,268.5 303.5,268.5 303.5,301.1 345.3,338.2 	"/>
	<path class="st3" d="M451.8,316.3l-57.5-13.5c-0.9-0.2-1.7-0.6-2.4-1l-46.6,27.2l-44.7-28.5c-1.2,1.1-2.6,1.9-4.2,2.3l-57.5,13.5
		c-8.4,2-14.3,9.5-14.3,18.1v36.4c0,5.1,4.2,9.3,9.3,9.3h223c5.1,0,9.3-4.2,9.3-9.3v-36.4C466.1,325.7,460.1,318.2,451.8,316.3z"/>
	<path class="st4" d="M303.5,268.5v34.3c52.7,19,83.6-28.5,83.6-28.5v-5.8L303.5,268.5L303.5,268.5z"/>
	<path class="st2" d="M284.9,161.7l4,89.1c0.4,8.3,4.5,16,11.1,21l19.2,14.4c4.8,3.6,10.7,5.6,16.7,5.6h18.6c6,0,11.9-2,16.7-5.6
		l19.2-14.4c6.7-5,10.7-12.7,11.1-21l4-89.1C405.7,161.7,284.9,161.7,284.9,161.7z"/>
	<path class="st5" d="M331.4,180.3c18.6,0,46.5-4.6,53.1-18.6h-99.5l4,89.1c0.4,8.3,4.5,16,11.1,21l19.2,14.4
		c4.8,3.6,10.7,5.6,16.7,5.6h9.3c-9.3,0-27.9-18.6-27.9-41.8c0-11.4,0-41.8,0-55.7C317.4,189.6,322.1,180.3,331.4,180.3z"/>
	<g>
		<path class="st6" d="M258.6,349.9l-30.1-27c-2.5,3.2-4,7.2-4,11.5v36.4c0,5.1,4.2,9.3,9.3,9.3h32.5v-12.9
			C266.3,360.6,263.5,354.3,258.6,349.9z"/>
	</g>
	<polygon class="st7" points="356.9,380 333.7,380 336.6,338.2 354,338.2 	"/>
	<path class="st8" d="M356.9,328.9h-23.2v8.7c0,2.9,2.3,5.2,5.2,5.2h12.8c2.9,0,5.2-2.3,5.2-5.2L356.9,328.9L356.9,328.9z"/>
	<g>
		<path class="st6" d="M302.8,290.7l42.5,38.2c0,0-11.9,6-26.6,18.1c-3,2.5-7.6,1.5-9.2-2.1l-19.9-43.9l6.3-9.5
			C297.4,289.2,300.7,288.8,302.8,290.7z"/>
		<path class="st6" d="M387.8,290.7l-42.5,38.2c0,0,11.9,6,26.6,18.1c3,2.5,7.6,1.5,9.2-2.1l19.9-43.9l-6.3-9.5
			C393.2,289.2,389.9,288.8,387.8,290.7z"/>
	</g>
	<path class="st9" d="M373.5,130.9l4.4,30.8c19.9,4,22.7,35.2,23.2,44.1c0.1,1.6,0.6,3.2,1.5,4.5l7.6,11.8c0,0-2.6-19.5,9.3-32.5
		C419.3,189.6,423.4,112.4,373.5,130.9z"/>
	<path class="st2" d="M414.7,220.1l-5.2,21c-0.6,2.5-2.9,4.2-5.4,4.2l0,0c-2.8,0-5.2-2.1-5.5-4.9l-2.7-21.5
		c-0.7-5.7,3.8-10.8,9.5-10.8h0C411.6,208.2,416.2,214,414.7,220.1z"/>
	<path class="st10" d="M289.4,122.6l6.9,4.7c-31.1,22.9-25.3,62.3-25.3,62.3c9.3,9.3,9.3,32.5,9.3,32.5l9.3-9.3
		c0,0-3.6-26.8,13.9-37.2c16.3-9.6,30.5-4.6,45-4.6c38.9,0,49.8-14.7,47.9-32.5c-1-9.2-15.1-28.5-51.1-27.9
		C330.8,110.9,303.5,115.3,289.4,122.6z"/>
	<path class="st11" d="M286.7,166.9c0,0-4.9-19.5,9.6-39.6c-31.1,22.9-25.3,62.3-25.3,62.3c9.3,9.3,9.3,32.5,9.3,32.5l9.3-9.3
		c0,0-3.6-26.8,13.9-37.2c16.3-9.6,30.5-4.6,45-4.6c6.3,0,11.8-0.4,16.8-1.1C335.3,170.9,317.6,148.2,286.7,166.9z"/>
	<path class="st12" d="M275.9,220.1l5.2,21c0.6,2.5,2.9,4.2,5.4,4.2l0,0c2.8,0,5.2-2.1,5.5-4.9l2.7-21.5c0.7-5.7-3.8-10.8-9.5-10.8
		h0C279,208.2,274.4,214,275.9,220.1z"/>
	<path class="st6" d="M405.7,370.7h-32.5c-2.6,0-4.6,2.1-4.6,4.6v4.6h41.8v-4.6C410.3,372.8,408.3,370.7,405.7,370.7z"/>
</g>
<g>
	<polygon class="st12" points="172.6,301.1 172.6,268.5 89,268.5 89,301.1 130.8,338.2 	"/>
	<path d="M237.2,316.3l-57.5-13.5c-0.9-0.2-1.7-0.6-2.4-1l-46.6,27.2L86,300.5c-1.2,1.1-2.6,1.9-4.2,2.3l-57.5,13.5
		c-8.4,2-14.3,9.5-14.3,18.1v36.4c0,5.1,4.2,9.3,9.3,9.3h223c5.1,0,9.3-4.2,9.3-9.3v-36.4C251.5,325.7,245.6,318.2,237.2,316.3z"/>
	<path class="st13" d="M89,268.5v34.3c52.7,19,83.6-28.5,83.6-28.5v-5.8L89,268.5L89,268.5z"/>
	<g>
		<path class="st6" d="M217.4,349.9l30.1-27c2.5,3.2,4,7.2,4,11.5v36.4c0,5.1-4.2,9.3-9.3,9.3h-32.5v-12.9
			C209.7,360.6,212.5,354.3,217.4,349.9z"/>
	</g>
	<polygon class="st14" points="142.4,380 119.2,380 122.1,338.2 139.5,338.2 	"/>
	<path class="st15" d="M142.4,328.9h-23.2v8.7c0,2.9,2.3,5.2,5.2,5.2h12.8c2.9,0,5.2-2.3,5.2-5.2L142.4,328.9L142.4,328.9z"/>
	<g>
		<path class="st6" d="M88.3,290.7l42.5,38.2c0,0-11.9,6-26.6,18.1c-3,2.5-7.6,1.5-9.2-2.1L75,301.1l6.3-9.5
			C82.9,289.2,86.2,288.8,88.3,290.7z"/>
		<path class="st6" d="M173.2,290.7l-42.5,38.2c0,0,11.9,6,26.6,18.1c3,2.5,7.6,1.5,9.2-2.1l19.9-43.9l-6.3-9.5
			C178.6,289.2,175.3,288.8,173.2,290.7z"/>
	</g>
	<path class="st16" d="M158.9,130.9l4.4,30.8c19.9,4,22.7,35.2,23.2,44.1c0.1,1.6,0.6,3.2,1.5,4.5l7.6,11.8c0,0-2.6-19.5,9.3-32.5
		C204.8,189.6,208.9,112.4,158.9,130.9z"/>
	<path class="st17" d="M200.2,220.1l-5.2,21c-0.6,2.5-2.9,4.2-5.4,4.2l0,0c-2.8,0-5.2-2.1-5.5-4.9l-2.7-21.5
		c-0.7-5.7,3.8-10.8,9.5-10.8h0C197.1,208.2,201.7,214,200.2,220.1z"/>
	<path class="st6" d="M191.2,370.7h-32.5c-2.6,0-4.6,2.1-4.6,4.6v4.6h41.8v-4.6C195.8,372.8,193.7,370.7,191.2,370.7z"/>
</g>
<path class="st17" d="M156.2,173.1c-28.6,28.6-84.6,5.7-84.6,51.4l3.5,33.7c0.7,7.5,5.1,14.2,11.7,17.9l32.5,18.1
	c5.2,2.9,11.5,2.9,16.6,0l32.5-18.1c6.6-3.7,11-10.4,11.7-17.9l4.1-40c0.3-2.8,0.4-5.7,0.3-8.6C182.4,195.1,161.9,184.5,156.2,173.1
	z"/>
<path class="st12" d="M71.6,224.5l3.5,33.7c0.7,7.5,5.1,14.2,11.7,17.9l32.5,18.1c3.6,2,7.7,2.5,11.6,1.7l0,0c0,0-16.4-5-26.2-31.4
	c-3-8.1-7.1-50.9-3.6-56.2c7.1-10.4,46.4-11.4,58-30.6c-0.6-0.7-1.1-1.4-1.6-2.1c0-0.1-0.1-0.1-0.1-0.2c-0.5-0.8-1-1.5-1.3-2.3
	C127.7,201.6,71.6,178.8,71.6,224.5z"/>
<g>
	<polygon class="st12" points="305.3,329.2 305.3,286.5 195.6,286.5 195.6,329.2 250.5,378 	"/>
	<path class="st18" d="M390.2,349.2l-75.5-17.8c-1.1-0.3-2.2-0.7-3.2-1.3l-61.1,35.7l-58.7-37.4c-1.5,1.4-3.4,2.5-5.6,3l-75.5,17.8
		c-11,2.6-18.8,12.4-18.8,23.7v47.8c0,6.7,5.5,12.2,12.2,12.2h292.8c6.7,0,12.2-5.5,12.2-12.2v-47.8
		C409,361.6,401.2,351.8,390.2,349.2z"/>
	<path class="st13" d="M195.6,286.5v45c69.1,24.9,109.8-37.4,109.8-37.4v-7.6L195.6,286.5L195.6,286.5z"/>
	<path class="st17" d="M171.2,146.2l5.3,116.9c0.5,10.9,5.9,21.1,14.6,27.6l25.2,18.9c6.3,4.8,14,7.3,22,7.3h24.4
		c7.9,0,15.6-2.6,22-7.3l25.2-18.9c8.7-6.6,14.1-16.7,14.6-27.6l5.3-116.9C329.7,146.2,171.2,146.2,171.2,146.2z"/>
	<path class="st12" d="M232.2,170.6c24.4,0,61-6.1,69.7-24.4H171.2l5.3,116.9c0.5,10.9,5.9,21.1,14.6,27.6l25.2,18.9
		c6.3,4.8,14,7.3,22,7.3h12.2c-12.2,0-36.6-24.4-36.6-54.9c0-14.9,0-54.9,0-73.2C213.9,182.8,220,170.6,232.2,170.6z"/>
	<g>
		<path class="st6" d="M136.6,393.3l-39.5-35.5c-3.3,4.2-5.3,9.5-5.3,15.1v47.8c0,6.7,5.5,12.2,12.2,12.2h42.7V416
			C146.8,407.3,143.1,399.1,136.6,393.3z"/>
		<path class="st6" d="M364.3,393.3l39.5-35.5c3.3,4.2,5.3,9.5,5.3,15.1v47.8c0,6.7-5.5,12.2-12.2,12.2h-42.7V416
			C354.1,407.3,357.8,399.1,364.3,393.3z"/>
	</g>
	<polygon class="st7" points="265.7,432.9 235.2,432.9 239,378 261.9,378 	"/>
	<path class="st19" d="M265.7,365.8h-30.5v11.5c0,3.8,3.1,6.8,6.8,6.8h16.9c3.8,0,6.8-3.1,6.8-6.8L265.7,365.8L265.7,365.8z"/>
	<g>
		<path class="st6" d="M194.7,315.6l55.7,50.2c0,0-15.6,7.9-34.9,23.8c-4,3.3-10,1.9-12.1-2.7l-26.2-57.6l8.3-12.4
			C187.6,313.7,191.9,313.1,194.7,315.6z"/>
		<path class="st6" d="M306.2,315.6l-55.7,50.2c0,0,15.6,7.9,34.9,23.8c4,3.3,10,1.9,12.1-2.7l26.2-57.6l-8.3-12.4
			C313.3,313.7,309,313.1,306.2,315.6z"/>
	</g>
	<path class="st16" d="M287.4,105.8l5.7,40.4c26.1,5.2,29.9,46.2,30.4,57.9c0.1,2.1,0.8,4.2,1.9,6l10,15.4c0,0-3.4-25.5,12.2-42.7
		C347.6,182.8,353,81.4,287.4,105.8z"/>
	<path class="st17" d="M341.6,222.9l-6.9,27.5c-0.8,3.3-3.7,5.6-7.1,5.6l0,0c-3.7,0-6.8-2.8-7.3-6.4l-3.5-28.2
		c-0.9-7.5,4.9-14.2,12.5-14.2h0C337.5,207.2,343.5,214.9,341.6,222.9z"/>
	<path class="st20" d="M177,94.9l9,6.2c-40.8,30.1-33.2,81.8-33.2,81.8c12.2,12.2,12.2,42.7,12.2,42.7l12.2-12.2
		c0,0-4.7-35.2,18.3-48.8c21.3-12.6,40-6.1,59.1-6.1c51.1,0,65.4-19.3,62.9-42.7c-1.3-12.1-19.8-37.4-67.1-36.6
		C231.4,79.5,195.6,85.2,177,94.9z"/>
	<path class="st21" d="M173.4,153.1c0,0-6.5-25.5,12.6-52c-40.8,30.1-33.2,81.8-33.2,81.8c12.2,12.2,12.2,42.7,12.2,42.7l12.2-12.2
		c0,0-4.7-35.2,18.3-48.8c21.3-12.6,40-6.1,59.1-6.1c8.3,0,15.5-0.6,22-1.5C237.3,158.2,214.1,128.4,173.4,153.1z"/>
	<path class="st12" d="M159.3,222.9l6.9,27.5c0.8,3.3,3.7,5.6,7.1,5.6l0,0c3.7,0,6.8-2.8,7.3-6.4l3.5-28.2
		c0.9-7.5-4.9-14.2-12.5-14.2h0C163.4,207.2,157.4,214.9,159.3,222.9z"/>
	<path class="st6" d="M329.7,420.7H287c-3.4,0-6.1,2.7-6.1,6.1v6.1h54.9v-6.1C335.8,423.4,333.1,420.7,329.7,420.7z"/>
</g>
</svg>
